<svg width="405" height="588" xmlns="http://www.w3.org/2000/svg" xmlns:xlink="http://www.w3.org/1999/xlink"><defs><rect id="a" width="403" height="586" rx="16"/></defs><g fill="none" fill-rule="evenodd"><g transform="translate(1 1)"><mask id="b" fill="#fff"><use xlink:href="#a"/></mask><rect stroke="#D6DBE4" x="-.5" y="-.5" width="404" height="587" rx="16"/><path fill="#F1F4F9" mask="url(#b)" d="M0 0h690v36H0z"/><path fill="#D6DBE4" mask="url(#b)" transform="matrix(1 0 0 -1 0 71)" d="M0 35h690v1H0z"/><circle stroke="#D6DBE4" fill="#FFF" mask="url(#b)" cx="29" cy="18" r="5.5"/><circle stroke="#D6DBE4" fill="#FFF" mask="url(#b)" cx="49" cy="18" r="5.5"/><circle stroke="#D6DBE4" fill="#FFF" mask="url(#b)" cx="69" cy="18" r="5.5"/></g><path d="M52.065 195.834c-.128 1.365-.632 2.43-1.511 3.195-.88.764-2.048 1.147-3.507 1.147-1.02 0-1.918-.242-2.694-.725-.776-.484-1.375-1.17-1.797-2.061-.422-.891-.642-1.925-.66-3.103v-1.195c0-1.207.214-2.27.642-3.19.428-.92 1.042-1.63 1.841-2.128.8-.498 1.725-.747 2.773-.747 1.412 0 2.55.384 3.41 1.152.862.767 1.363 1.851 1.503 3.252h-2.214c-.106-.92-.374-1.584-.805-1.991-.43-.407-1.062-.61-1.894-.61-.966 0-1.71.352-2.228 1.058-.518.706-.783 1.742-.795 3.107v1.134c0 1.383.247 2.437.743 3.164.495.727 1.22 1.09 2.175 1.09.873 0 1.53-.196 1.969-.59.44-.392.717-1.045.835-1.959h2.214zm1.38-.677c0-.931.185-1.77.554-2.518.37-.747.888-1.321 1.556-1.722.668-.402 1.435-.603 2.302-.603 1.284 0 2.325.414 3.125 1.24.8.826 1.232 1.922 1.296 3.287l.01.5c0 .938-.181 1.776-.541 2.514a3.995 3.995 0 0 1-1.547 1.714c-.671.405-1.446.607-2.325.607-1.342 0-2.416-.447-3.221-1.34-.806-.894-1.209-2.085-1.209-3.573v-.106zm2.136.185c0 .978.202 1.744.606 2.298.405.554.967.83 1.688.83.72 0 1.282-.28 1.683-.843s.602-1.386.602-2.47c0-.96-.206-1.722-.62-2.285-.413-.562-.974-.844-1.683-.844-.697 0-1.25.277-1.66.83-.41.555-.616 1.382-.616 2.484zm10.494-4.852l.062 1.099c.703-.85 1.626-1.275 2.768-1.275 1.98 0 2.989 1.134 3.024 3.402V200h-2.136v-6.161c0-.604-.13-1.05-.391-1.34-.26-.29-.687-.436-1.279-.436-.861 0-1.503.39-1.925 1.17V200h-2.135v-9.51h2.012zm7.63 4.685c0-1.465.339-2.641 1.019-3.529.68-.888 1.59-1.332 2.733-1.332 1.008 0 1.822.352 2.443 1.055V186.5h2.136V200h-1.933l-.106-.984c-.639.773-1.491 1.16-2.558 1.16-1.113 0-2.014-.448-2.702-1.345-.689-.896-1.033-2.115-1.033-3.656zm2.135.184c0 .967.186 1.722.558 2.264.372.542.9.813 1.586.813.873 0 1.512-.39 1.916-1.17v-4.06c-.392-.762-1.025-1.143-1.898-1.143-.691 0-1.225.274-1.6.822-.375.548-.562 1.373-.562 2.474zM86.536 200H84.4v-9.51h2.136V200zm-2.267-11.98c0-.328.104-.6.312-.817.208-.217.505-.325.892-.325.386 0 .685.108.896.325.211.217.317.49.317.818a1.1 1.1 0 0 1-.317.804c-.21.214-.51.32-.896.32-.387 0-.684-.106-.892-.32a1.107 1.107 0 0 1-.312-.804zm7.268.159v2.311h1.679v1.582h-1.679v5.309c0 .363.072.625.215.786.144.162.4.242.77.242.246 0 .495-.03.747-.088v1.653a5.26 5.26 0 0 1-1.407.202c-1.64 0-2.46-.905-2.46-2.716v-5.388h-1.565v-1.582H89.4v-2.311h2.136zM97.118 200h-2.136v-9.51h2.136V200zm-2.267-11.98c0-.328.104-.6.312-.817.208-.217.505-.325.892-.325.386 0 .685.108.896.325.211.217.317.49.317.818a1.1 1.1 0 0 1-.317.804c-.21.214-.51.32-.896.32-.387 0-.684-.106-.892-.32a1.107 1.107 0 0 1-.312-.804zm4.192 7.137c0-.931.185-1.77.554-2.518.369-.747.887-1.321 1.555-1.722.668-.402 1.436-.603 2.303-.603 1.283 0 2.325.414 3.125 1.24.8.826 1.232 1.922 1.296 3.287l.009.5c0 .938-.18 1.776-.54 2.514a3.995 3.995 0 0 1-1.548 1.714c-.67.405-1.445.607-2.324.607-1.342 0-2.416-.447-3.222-1.34-.805-.894-1.208-2.085-1.208-3.573v-.106zm2.136.185c0 .978.202 1.744.606 2.298.404.554.967.83 1.688.83.72 0 1.281-.28 1.683-.843.401-.563.602-1.386.602-2.47 0-.96-.207-1.722-.62-2.285-.413-.562-.974-.844-1.683-.844-.697 0-1.25.277-1.661.83-.41.555-.615 1.382-.615 2.484zm10.494-4.852l.061 1.099c.704-.85 1.626-1.275 2.769-1.275 1.98 0 2.988 1.134 3.023 3.402V200h-2.135v-6.161c0-.604-.13-1.05-.391-1.34-.261-.29-.687-.436-1.28-.436-.86 0-1.502.39-1.924 1.17V200h-2.136v-9.51h2.013zm13.36 6.926c0-.38-.158-.67-.471-.87-.313-.2-.833-.375-1.56-.527-.727-.153-1.333-.346-1.82-.58-1.066-.516-1.599-1.263-1.599-2.242 0-.82.346-1.506 1.037-2.056.692-.551 1.57-.827 2.637-.827 1.137 0 2.055.282 2.755.844.7.563 1.05 1.292 1.05 2.189h-2.135c0-.41-.153-.752-.457-1.024-.305-.273-.71-.409-1.213-.409-.469 0-.851.108-1.147.325a1.025 1.025 0 0 0-.444.87c0 .329.138.583.413.765.275.182.832.365 1.67.55.838.184 1.496.404 1.973.659.478.254.832.56 1.064.918.231.357.347.791.347 1.3 0 .856-.355 1.55-1.064 2.08-.709.53-1.637.795-2.786.795-.78 0-1.473-.14-2.083-.422-.61-.281-1.084-.668-1.424-1.16a2.746 2.746 0 0 1-.51-1.591h2.075c.03.504.22.892.571 1.164.352.273.817.41 1.398.41.562 0 .99-.108 1.283-.322.293-.213.44-.493.44-.839z" fill="#2A3743" fill-rule="nonzero"/><path d="M44 223h168a3 3 0 0 1 3 3v30a3 3 0 0 1-3 3H44a3 3 0 0 1-3-3v-30a3 3 0 0 1 3-3zm0 40h81a3 3 0 0 1 3 3v30a3 3 0 0 1-3 3H44a3 3 0 0 1-3-3v-30a3 3 0 0 1 3-3zm0 40h55a3 3 0 0 1 3 3v30a3 3 0 0 1-3 3H44a3 3 0 0 1-3-3v-30a3 3 0 0 1 3-3z" fill="#DEE3E8"/><path d="M57.745 235.336v7.25c-.005 1.007-.32 1.83-.948 2.47-.628.639-1.479.998-2.553 1.076l-.373.014c-1.167 0-2.098-.314-2.79-.944-.694-.63-1.046-1.497-1.056-2.6v-7.266h1.392v7.222c0 .771.212 1.37.637 1.798.425.427 1.03.64 1.817.64.796 0 1.405-.212 1.827-.637.422-.424.634-1.023.634-1.794v-7.23h1.413zm5.838 3.955a4.06 4.06 0 0 0-.667-.051c-.889 0-1.492.378-1.81 1.135V246h-1.354v-7.925h1.318l.022.916c.445-.708 1.074-1.062 1.89-1.062.264 0 .464.034.6.102v1.26zm4.394 6.855c-1.074 0-1.948-.352-2.622-1.058-.674-.705-1.01-1.649-1.01-2.83v-.25c0-.786.15-1.488.45-2.105.3-.618.72-1.101 1.26-1.45a3.167 3.167 0 0 1 1.754-.524c1.03 0 1.83.34 2.402 1.018.571.678.857 1.65.857 2.915v.564h-5.369c.02.781.248 1.412.685 1.893.437.481.992.722 1.666.722.479 0 .884-.098 1.216-.293.332-.196.623-.455.872-.777l.827.645c-.664 1.02-1.66 1.53-2.988 1.53zm-.168-7.104c-.547 0-1.006.199-1.377.597-.371.398-.6.956-.689 1.673h3.97v-.102c-.04-.689-.225-1.222-.557-1.6-.332-.379-.781-.568-1.347-.568zm6.665-2.886v1.92h1.48v1.047h-1.48v4.914c0 .317.066.556.197.714.132.159.357.238.674.238.156 0 .371-.029.645-.088V246a3.928 3.928 0 0 1-1.04.146c-.606 0-1.062-.183-1.37-.549-.308-.366-.461-.886-.461-1.56v-4.914h-1.443v-1.048h1.443v-1.919h1.355zm4.416 2.879c.6-.738 1.382-1.106 2.344-1.106 1.675 0 2.52.945 2.534 2.834V246h-1.355v-5.244c-.005-.571-.135-.994-.392-1.267-.256-.274-.655-.41-1.197-.41-.44 0-.825.117-1.157.351a2.388 2.388 0 0 0-.777.923V246h-1.355v-11.25h1.355v4.285zm10.737.256a4.06 4.06 0 0 0-.666-.051c-.889 0-1.492.378-1.81 1.135V246h-1.354v-7.925h1.318l.022.916c.445-.708 1.074-1.062 1.89-1.062.264 0 .464.034.6.102v1.26zM92.345 246H90.99v-7.925h1.355V246zm-1.465-10.027c0-.22.067-.405.201-.556.135-.152.334-.228.597-.228.264 0 .464.076.6.228a.8.8 0 0 1 .206.556c0 .22-.068.403-.205.55-.137.146-.337.22-.6.22-.264 0-.463-.074-.598-.22a.782.782 0 0 1-.201-.55zm5.471.183v1.92h1.48v1.047h-1.48v4.914c0 .317.066.556.198.714.132.159.356.238.674.238.156 0 .37-.029.644-.088V246a3.928 3.928 0 0 1-1.04.146c-.605 0-1.062-.183-1.37-.549-.307-.366-.46-.886-.46-1.56v-4.914h-1.444v-1.048h1.443v-1.919h1.355zm4.534 9.844H99.53v-7.925h1.355V246zm-1.465-10.027c0-.22.067-.405.201-.556.135-.152.334-.228.597-.228.264 0 .464.076.6.228a.8.8 0 0 1 .206.556c0 .22-.068.403-.205.55-.137.146-.337.22-.6.22-.264 0-.463-.074-.598-.22a.782.782 0 0 1-.201-.55zm8.247 7.925c0-.366-.138-.65-.414-.853-.276-.203-.757-.378-1.443-.524-.686-.146-1.23-.322-1.633-.527-.403-.205-.7-.45-.894-.733a1.752 1.752 0 0 1-.289-1.01c0-.65.275-1.2.824-1.648.55-.45 1.251-.674 2.106-.674.898 0 1.627.232 2.186.696.56.463.839 1.057.839 1.78h-1.363c0-.372-.157-.692-.472-.96-.315-.269-.712-.403-1.19-.403-.493 0-.88.107-1.157.322a1.014 1.014 0 0 0-.418.843c0 .327.13.573.388.74.26.165.727.324 1.403.475.676.152 1.224.332 1.644.542.42.21.731.463.934.758.203.296.304.656.304 1.08 0 .709-.283 1.276-.85 1.704-.566.427-1.3.64-2.204.64-.635 0-1.197-.112-1.685-.336a2.74 2.74 0 0 1-1.146-.942 2.268 2.268 0 0 1-.414-1.307h1.355c.025.454.206.814.546 1.08.34.266.787.4 1.344.4.512 0 .924-.104 1.234-.312.31-.207.465-.484.465-.831z" fill="#475561" fill-rule="nonzero"/><path d="M48.99 394.704c0-.562-.198-.996-.594-1.3-.396-.305-1.109-.613-2.14-.924-1.031-.31-1.852-.656-2.461-1.037-1.166-.732-1.75-1.687-1.75-2.865 0-1.031.421-1.88 1.262-2.549.841-.668 1.932-1.002 3.274-1.002.89 0 1.685.164 2.382.493a3.91 3.91 0 0 1 1.643 1.401c.399.607.598 1.28.598 2.017H48.99c0-.667-.21-1.19-.628-1.568-.42-.378-1.018-.567-1.798-.567-.726 0-1.29.155-1.691.466-.402.31-.602.744-.602 1.3 0 .47.216.86.65 1.174.434.313 1.148.618 2.144.914.997.296 1.796.633 2.4 1.01.603.378 1.046.812 1.327 1.301.281.49.422 1.062.422 1.719 0 1.066-.409 1.914-1.226 2.544-.818.63-1.926.945-3.327.945-.926 0-1.777-.172-2.553-.514-.776-.343-1.38-.816-1.81-1.42-.431-.603-.647-1.306-.647-2.11h2.224c0 .727.24 1.29.72 1.688.481.399 1.17.598 2.066.598.774 0 1.355-.157 1.745-.47.39-.314.584-.728.584-1.244zm7.294.237l1.934-6.45h2.276l-3.78 10.95c-.58 1.6-1.564 2.4-2.952 2.4-.31 0-.654-.053-1.029-.158v-1.653l.405.027c.539 0 .945-.099 1.217-.295.272-.196.488-.526.646-.989l.308-.817-3.34-9.466h2.302l2.013 6.451zm7.445-6.45l.061.992c.668-.779 1.582-1.169 2.742-1.169 1.272 0 2.142.487 2.61 1.46.692-.973 1.665-1.46 2.919-1.46 1.048 0 1.83.29 2.342.87.513.58.775 1.436.786 2.567V398h-2.135v-6.188c0-.603-.132-1.045-.396-1.327-.263-.28-.7-.422-1.31-.422-.486 0-.883.13-1.19.392-.308.26-.523.602-.646 1.024L69.52 398h-2.136v-6.258c-.03-1.119-.6-1.679-1.714-1.679-.856 0-1.462.35-1.82 1.046V398h-2.135v-9.51h2.013zm21.981 4.85c0 1.472-.334 2.645-1.002 3.52-.668.877-1.564 1.315-2.69 1.315-1.042 0-1.877-.343-2.504-1.029v4.51h-2.136V388.49h1.969l.088.967c.627-.762 1.48-1.143 2.557-1.143 1.16 0 2.07.433 2.73 1.297.658.864.988 2.064.988 3.599v.132zm-2.127-.184c0-.949-.189-1.702-.567-2.259-.378-.556-.918-.835-1.621-.835-.874 0-1.5.36-1.881 1.082v4.218c.386.739 1.02 1.108 1.898 1.108.68 0 1.212-.274 1.595-.822.384-.548.576-1.378.576-2.492zm6.61-6.978v2.311h1.678v1.582h-1.679v5.309c0 .363.072.625.216.786.143.162.4.242.769.242.246 0 .495-.03.747-.088v1.653a5.26 5.26 0 0 1-1.406.202c-1.641 0-2.461-.905-2.461-2.716v-5.388h-1.565v-1.582h1.565v-2.311h2.135zm2.645 6.978c0-.931.184-1.77.554-2.518.369-.747.887-1.321 1.555-1.722.668-.402 1.436-.603 2.303-.603 1.283 0 2.325.414 3.125 1.24.8.826 1.231 1.922 1.296 3.287l.009.5c0 .938-.18 1.776-.54 2.514a3.995 3.995 0 0 1-1.548 1.714c-.67.405-1.446.607-2.324.607-1.342 0-2.416-.447-3.222-1.34-.805-.894-1.208-2.085-1.208-3.573v-.106zm2.136.185c0 .978.202 1.744.606 2.298.404.554.967.83 1.688.83.72 0 1.281-.28 1.683-.843.401-.563.602-1.386.602-2.47 0-.96-.207-1.722-.62-2.285-.413-.562-.974-.844-1.683-.844-.697 0-1.251.277-1.661.83-.41.555-.615 1.382-.615 2.484zm10.52-4.852l.062.993c.668-.779 1.582-1.169 2.742-1.169 1.271 0 2.141.487 2.61 1.46.692-.973 1.664-1.46 2.918-1.46 1.049 0 1.83.29 2.342.87.513.58.775 1.436.787 2.567V398h-2.136v-6.188c0-.603-.131-1.045-.395-1.327-.264-.28-.7-.422-1.31-.422-.486 0-.883.13-1.19.392-.308.26-.524.602-.647 1.024l.01 6.521h-2.137v-6.258c-.029-1.119-.6-1.679-1.713-1.679-.856 0-1.462.35-1.82 1.046V398h-2.136v-9.51h2.013zm18.985 6.926a.97.97 0 0 0-.47-.87c-.314-.2-.834-.375-1.56-.527-.727-.153-1.334-.346-1.82-.58-1.067-.516-1.6-1.263-1.6-2.242 0-.82.346-1.506 1.037-2.056.692-.551 1.57-.827 2.637-.827 1.137 0 2.055.282 2.755.844.7.563 1.05 1.292 1.05 2.189h-2.135c0-.41-.152-.752-.457-1.024-.305-.273-.709-.409-1.213-.409-.469 0-.85.108-1.147.325a1.025 1.025 0 0 0-.444.87c0 .329.138.583.413.765.276.182.832.365 1.67.55.838.184 1.496.404 1.973.659.478.254.832.56 1.064.918.231.357.347.791.347 1.3 0 .856-.354 1.55-1.063 2.08-.71.53-1.638.795-2.787.795-.779 0-1.473-.14-2.083-.422-.609-.281-1.083-.668-1.423-1.16a2.746 2.746 0 0 1-.51-1.591h2.074c.03.504.22.892.571 1.164.352.273.818.41 1.398.41.562 0 .99-.108 1.283-.322.293-.213.44-.493.44-.839z" fill="#2A3743" fill-rule="nonzero"/><path d="M50.238 286v-10.664h3.486c1.157 0 2.028.24 2.611.718.584.478.875 1.186.875 2.124 0 .498-.141.938-.424 1.322-.284.383-.67.68-1.158.89a2.46 2.46 0 0 1 1.366.919c.335.451.502.99.502 1.615 0 .957-.31 1.709-.93 2.256-.62.547-1.497.82-2.63.82h-3.698zm1.406-4.988v3.838h2.322c.654 0 1.17-.17 1.549-.509.378-.34.568-.807.568-1.403 0-1.284-.699-1.926-2.095-1.926h-2.344zm0-1.128h2.124c.615 0 1.107-.154 1.476-.461.369-.308.553-.725.553-1.253 0-.586-.171-1.012-.513-1.278-.342-.266-.862-.399-1.56-.399h-2.08v3.391zM60.836 286H59.48v-11.25h1.355V286zm7.06 0c-.078-.156-.141-.435-.19-.835-.63.654-1.382.981-2.256.981-.781 0-1.422-.22-1.922-.662a2.148 2.148 0 0 1-.751-1.681c0-.825.314-1.466.941-1.923.627-.456 1.51-.685 2.648-.685h1.318v-.622c0-.474-.142-.851-.425-1.132-.283-.28-.7-.421-1.252-.421-.484 0-.889.122-1.216.366-.327.244-.49.54-.49.886h-1.363c0-.395.14-.777.421-1.146.28-.368.662-.66 1.143-.875a3.844 3.844 0 0 1 1.585-.322c.913 0 1.629.228 2.146.685.518.456.787 1.085.806 1.886v3.647c0 .728.093 1.306.278 1.736V286h-1.42zm-2.248-1.033c.425 0 .828-.11 1.208-.33.381-.219.657-.505.828-.856v-1.626h-1.062c-1.66 0-2.49.486-2.49 1.457 0 .425.141.757.425.996.283.24.647.36 1.09.36zm5.185-2.995c0-1.216.289-2.194.865-2.934.576-.74 1.33-1.11 2.263-1.11.928 0 1.663.318 2.205.953v-4.131h1.355V286h-1.246l-.066-.85c-.542.664-1.296.996-2.263.996-.918 0-1.666-.375-2.245-1.127-.578-.752-.868-1.734-.868-2.945v-.102zm1.355.153c0 .899.186 1.602.557 2.11.371.508.884.762 1.538.762.86 0 1.487-.386 1.883-1.158v-3.64c-.406-.747-1.028-1.12-1.868-1.12-.664 0-1.182.256-1.553.769-.371.512-.557 1.272-.557 2.277zm7.105-.153c0-1.216.288-2.194.864-2.934.576-.74 1.33-1.11 2.263-1.11.928 0 1.663.318 2.205.953v-4.131h1.355V286h-1.245l-.066-.85c-.542.664-1.296.996-2.263.996-.918 0-1.666-.375-2.245-1.127-.579-.752-.868-1.734-.868-2.945v-.102zm1.355.153c0 .899.185 1.602.557 2.11.37.508.883.762 1.538.762.86 0 1.486-.386 1.882-1.158v-3.64c-.405-.747-1.028-1.12-1.868-1.12-.664 0-1.181.256-1.552.769-.372.512-.557 1.272-.557 2.277zm10.723 4.021c-1.075 0-1.949-.352-2.622-1.058-.674-.705-1.011-1.649-1.011-2.83v-.25c0-.786.15-1.488.45-2.105.3-.618.72-1.101 1.26-1.45a3.167 3.167 0 0 1 1.754-.524c1.03 0 1.831.34 2.402 1.018.572.678.857 1.65.857 2.915v.564h-5.368c.02.781.248 1.412.685 1.893.437.481.992.722 1.666.722.478 0 .884-.098 1.216-.293a3.07 3.07 0 0 0 .871-.777l.828.645c-.664 1.02-1.66 1.53-2.988 1.53zm-.169-7.104c-.547 0-1.006.199-1.377.597-.37.398-.6.956-.688 1.673h3.97v-.102c-.04-.689-.225-1.222-.557-1.6-.332-.379-.781-.568-1.348-.568zm8.657.249a4.06 4.06 0 0 0-.666-.051c-.889 0-1.492.378-1.81 1.135V286H96.03v-7.925h1.318l.022.916c.444-.708 1.074-1.062 1.89-1.062.263 0 .464.034.6.102v1.26zM106.29 286h-1.355v-7.925h1.355V286zm-1.465-10.027c0-.22.067-.405.202-.556.134-.152.333-.228.597-.228.263 0 .463.076.6.228a.8.8 0 0 1 .205.556c0 .22-.068.403-.205.55-.137.146-.337.22-.6.22-.264 0-.463-.074-.597-.22a.782.782 0 0 1-.202-.55zm4.915 2.102l.044.996c.605-.761 1.396-1.142 2.373-1.142 1.675 0 2.52.945 2.534 2.834V286h-1.355v-5.244c-.005-.571-.136-.994-.392-1.267-.256-.274-.655-.41-1.197-.41-.44 0-.826.117-1.158.351-.332.235-.59.542-.776.923V286h-1.355v-7.925h1.282zM117.4 286v-6.877h-1.252v-1.048h1.253v-.813c0-.85.227-1.506.681-1.97.454-.464 1.096-.696 1.926-.696.313 0 .623.042.93.125l-.073 1.098a3.891 3.891 0 0 0-.732-.066c-.44 0-.779.129-1.018.385-.24.256-.36.624-.36 1.102v.835h1.693v1.048h-1.692V286H117.4zm7.655.146c-1.075 0-1.949-.352-2.622-1.058-.674-.705-1.011-1.649-1.011-2.83v-.25c0-.786.15-1.488.45-2.105.3-.618.72-1.101 1.26-1.45a3.167 3.167 0 0 1 1.754-.524c1.03 0 1.831.34 2.403 1.018.57.678.857 1.65.857 2.915v.564h-5.37c.02.781.249 1.412.686 1.893.437.481.992.722 1.666.722.478 0 .884-.098 1.216-.293a3.07 3.07 0 0 0 .871-.777l.828.645c-.664 1.02-1.66 1.53-2.988 1.53zm-.169-7.104c-.547 0-1.006.199-1.377.597-.37.398-.6.956-.688 1.673h3.97v-.102c-.04-.689-.225-1.222-.557-1.6-.332-.379-.781-.568-1.348-.568zm8.006 5.999c.483 0 .905-.147 1.267-.44.361-.293.561-.66.6-1.099h1.282c-.024.455-.18.887-.469 1.297-.288.41-.672.737-1.153.981s-.99.366-1.527.366c-1.08 0-1.938-.36-2.575-1.08-.637-.72-.956-1.705-.956-2.955v-.227c0-.772.142-1.458.425-2.058.283-.6.69-1.067 1.22-1.4.53-.331 1.156-.497 1.878-.497.889 0 1.627.266 2.216.798.588.532.902 1.223.941 2.073h-1.282c-.039-.513-.233-.934-.582-1.264-.35-.33-.78-.494-1.293-.494-.688 0-1.222.248-1.6.743-.378.496-.568 1.213-.568 2.15v.256c0 .913.188 1.617.564 2.11.376.493.913.74 1.612.74zm6.51-8.885v1.92h1.48v1.047h-1.48v4.914c0 .317.067.556.199.714.131.159.356.238.673.238.157 0 .372-.029.645-.088V286a3.928 3.928 0 0 1-1.04.146c-.606 0-1.062-.183-1.37-.549-.307-.366-.461-.886-.461-1.56v-4.914h-1.443v-1.048h1.443v-1.919h1.355zm4.535 9.844h-1.355v-7.925h1.355V286zm-1.465-10.027c0-.22.067-.405.201-.556.134-.152.333-.228.597-.228.264 0 .464.076.6.228a.8.8 0 0 1 .206.556.78.78 0 0 1-.205.55c-.137.146-.337.22-.601.22-.264 0-.463-.074-.597-.22a.782.782 0 0 1-.201-.55zm3.274 5.991c0-.776.152-1.474.457-2.094.306-.62.73-1.099 1.275-1.436.544-.337 1.166-.505 1.864-.505 1.079 0 1.952.373 2.618 1.12.667.747 1 1.741 1 2.981v.095c0 .772-.148 1.464-.443 2.077a3.365 3.365 0 0 1-1.267 1.432c-.55.342-1.18.512-1.894.512-1.074 0-1.944-.373-2.61-1.12-.667-.747-1-1.736-1-2.966v-.096zm1.362.161c0 .88.204 1.585.611 2.117.408.532.954.799 1.637.799.689 0 1.236-.27 1.641-.81s.608-1.295.608-2.267c0-.869-.206-1.573-.619-2.113-.413-.54-.96-.809-1.644-.809-.67 0-1.209.266-1.619.798-.41.533-.615 1.294-.615 2.285zm8.833-4.05l.044.996c.605-.761 1.396-1.142 2.373-1.142 1.675 0 2.52.945 2.534 2.834V286h-1.355v-5.244c-.005-.571-.135-.994-.392-1.267-.256-.274-.655-.41-1.197-.41-.44 0-.825.117-1.157.351a2.388 2.388 0 0 0-.777.923V286h-1.355v-7.925h1.282zM53.768 324.132l3.047-8.796h1.538L54.398 326h-1.245l-3.948-10.664h1.53l3.033 8.796zm10.488 1.084c-.527.62-1.3.93-2.321.93-.845 0-1.488-.245-1.93-.736-.442-.49-.666-1.217-.67-2.179v-5.156h1.354v5.12c0 1.201.489 1.802 1.465 1.802 1.035 0 1.724-.386 2.066-1.158v-5.764h1.355V326h-1.29l-.029-.784zm4.849.784H67.75v-11.25h1.355V326zm4.783-1.838l1.963-6.087h1.384L74.393 326H73.36l-2.87-7.925h1.384l2.014 6.087zm4.182-2.198c0-.776.152-1.474.458-2.094.305-.62.73-1.099 1.274-1.436.544-.337 1.166-.505 1.864-.505 1.08 0 1.952.373 2.618 1.12.667.747 1 1.741 1 2.981v.095c0 .772-.148 1.464-.443 2.077a3.365 3.365 0 0 1-1.267 1.432c-.55.342-1.18.512-1.893.512-1.075 0-1.945-.373-2.611-1.12-.667-.747-1-1.736-1-2.966v-.096zm1.362.161c0 .88.204 1.585.612 2.117.407.532.953.799 1.637.799.688 0 1.235-.27 1.64-.81.406-.54.608-1.295.608-2.267 0-.869-.206-1.573-.619-2.113-.412-.54-.96-.809-1.644-.809-.669 0-1.208.266-1.619.798-.41.533-.615 1.294-.615 2.285zm10.056 2.037l1.963-6.087h1.384L89.994 326H88.96l-2.871-7.925h1.384l2.014 6.087zM98.922 326c-.078-.156-.142-.435-.19-.835-.63.654-1.382.981-2.256.981-.782 0-1.423-.22-1.923-.662-.5-.442-.75-1.003-.75-1.681 0-.825.313-1.466.94-1.923.628-.456 1.51-.685 2.648-.685h1.318v-.622c0-.474-.141-.851-.424-1.132-.284-.28-.701-.421-1.253-.421-.483 0-.888.122-1.216.366-.327.244-.49.54-.49.886h-1.363c0-.395.14-.777.422-1.146.28-.368.661-.66 1.142-.875a3.844 3.844 0 0 1 1.586-.322c.913 0 1.628.228 2.146.685.517.456.786 1.085.805 1.886v3.647c0 .728.093 1.306.279 1.736V326h-1.421zm-2.249-1.033c.425 0 .828-.11 1.209-.33.38-.219.657-.505.827-.856v-1.626h-1.062c-1.66 0-2.49.486-2.49 1.457 0 .425.142.757.425.996.283.24.647.36 1.091.36zm5.193-2.995c0-1.236.286-2.218.857-2.948s1.328-1.095 2.27-1.095c.967 0 1.722.342 2.264 1.025l.066-.879h1.238v7.735c0 1.025-.304 1.833-.912 2.424-.608.59-1.425.886-2.45.886-.572 0-1.13-.122-1.678-.366-.546-.244-.964-.579-1.252-1.004l.703-.813c.581.718 1.292 1.077 2.132 1.077.659 0 1.173-.185 1.541-.556.369-.372.553-.894.553-1.568v-.681c-.542.625-1.281.937-2.219.937-.928 0-1.678-.373-2.252-1.12-.574-.747-.86-1.765-.86-3.054zm1.363.153c0 .894.183 1.596.549 2.106.366.51.879.766 1.538.766.854 0 1.482-.389 1.882-1.165v-3.618c-.415-.757-1.037-1.135-1.867-1.135-.66 0-1.175.256-1.546.769-.37.512-.556 1.272-.556 2.277zm8.847 3.875h-1.355v-7.925h1.355V326zm-1.465-10.027c0-.22.067-.405.202-.556.134-.152.333-.228.597-.228.263 0 .464.076.6.228a.8.8 0 0 1 .205.556c0 .22-.068.403-.205.55-.136.146-.337.22-.6.22-.264 0-.463-.074-.597-.22a.782.782 0 0 1-.202-.55zm4.915 2.102l.044.996c.605-.761 1.396-1.142 2.373-1.142 1.675 0 2.52.945 2.534 2.834V326h-1.355v-5.244c-.005-.571-.135-.994-.392-1.267-.256-.274-.655-.41-1.197-.41-.44 0-.825.117-1.158.351-.332.235-.59.542-.776.923V326h-1.355v-7.925h1.282zM127.413 326c-.078-.156-.142-.435-.19-.835-.63.654-1.382.981-2.256.981-.781 0-1.422-.22-1.923-.662-.5-.442-.75-1.003-.75-1.681 0-.825.313-1.466.94-1.923.628-.456 1.51-.685 2.648-.685h1.319v-.622c0-.474-.142-.851-.425-1.132-.283-.28-.7-.421-1.253-.421-.483 0-.888.122-1.215.366-.328.244-.491.54-.491.886h-1.362c0-.395.14-.777.42-1.146.281-.368.662-.66 1.143-.875a3.844 3.844 0 0 1 1.586-.322c.913 0 1.628.228 2.146.685.518.456.786 1.085.806 1.886v3.647c0 .728.092 1.306.278 1.736V326h-1.42zm-2.248-1.033c.424 0 .827-.11 1.208-.33.38-.219.657-.505.828-.856v-1.626h-1.062c-1.66 0-2.49.486-2.49 1.457 0 .425.141.757.424.996.283.24.647.36 1.092.36zm6.987 1.033h-1.355v-11.25h1.355V326zm9.06-.96c.483 0 .906-.146 1.267-.439.361-.293.562-.66.6-1.099h1.282c-.024.455-.18.887-.468 1.297-.289.41-.673.737-1.154.981-.48.244-.99.366-1.527.366-1.08 0-1.937-.36-2.575-1.08-.637-.72-.955-1.705-.955-2.955v-.227c0-.772.141-1.458.424-2.058.284-.6.69-1.067 1.22-1.4.53-.331 1.156-.497 1.879-.497.888 0 1.627.266 2.215.798.589.532.902 1.223.941 2.073h-1.281c-.04-.513-.234-.934-.583-1.264-.349-.33-.78-.494-1.292-.494-.689 0-1.222.248-1.6.743-.38.496-.568 1.213-.568 2.15v.256c0 .913.188 1.617.564 2.11.376.493.913.74 1.61.74zm9.565.96c-.078-.156-.141-.435-.19-.835-.63.654-1.382.981-2.256.981-.781 0-1.422-.22-1.923-.662-.5-.442-.75-1.003-.75-1.681 0-.825.313-1.466.94-1.923.628-.456 1.51-.685 2.649-.685h1.318v-.622c0-.474-.142-.851-.425-1.132-.283-.28-.7-.421-1.252-.421-.484 0-.889.122-1.216.366-.327.244-.49.54-.49.886h-1.363c0-.395.14-.777.421-1.146.28-.368.662-.66 1.143-.875a3.844 3.844 0 0 1 1.585-.322c.913 0 1.629.228 2.146.685.518.456.786 1.085.806 1.886v3.647c0 .728.093 1.306.278 1.736V326h-1.42zm-2.248-1.033c.425 0 .827-.11 1.208-.33.381-.219.657-.505.828-.856v-1.626h-1.062c-1.66 0-2.49.486-2.49 1.457 0 .425.141.757.424.996.284.24.647.36 1.092.36zm6.797-6.892l.044.996c.605-.761 1.396-1.142 2.373-1.142 1.674 0 2.52.945 2.534 2.834V326h-1.355v-5.244c-.005-.571-.136-.994-.392-1.267-.256-.274-.655-.41-1.197-.41-.44 0-.826.117-1.158.351-.332.235-.59.542-.776.923V326h-1.355v-7.925h1.282zm6.665 3.897c0-1.216.288-2.194.864-2.934.576-.74 1.33-1.11 2.263-1.11.928 0 1.663.318 2.205.953v-4.131h1.355V326h-1.245l-.066-.85c-.542.664-1.297.996-2.263.996-.918 0-1.667-.375-2.245-1.127-.579-.752-.868-1.734-.868-2.945v-.102zm1.355.153c0 .899.185 1.602.556 2.11.371.508.884.762 1.538.762.86 0 1.487-.386 1.883-1.158v-3.64c-.406-.747-1.028-1.12-1.868-1.12-.664 0-1.182.256-1.553.769-.37.512-.556 1.272-.556 2.277zm8.906 3.875h-1.355v-7.925h1.355V326zm-1.465-10.027c0-.22.067-.405.202-.556.134-.152.333-.228.596-.228.264 0 .464.076.601.228a.8.8 0 0 1 .205.556c0 .22-.068.403-.205.55-.137.146-.337.22-.6.22-.264 0-.463-.074-.597-.22a.782.782 0 0 1-.202-.55zm3.303 5.999c0-1.216.288-2.194.865-2.934.576-.74 1.33-1.11 2.263-1.11.928 0 1.662.318 2.204.953v-4.131h1.355V326h-1.245l-.066-.85c-.542.664-1.296.996-2.263.996-.918 0-1.666-.375-2.245-1.127-.578-.752-.868-1.734-.868-2.945v-.102zm1.355.153c0 .899.186 1.602.557 2.11.371.508.884.762 1.538.762.86 0 1.487-.386 1.882-1.158v-3.64c-.405-.747-1.027-1.12-1.867-1.12-.664 0-1.182.256-1.553.769-.371.512-.557 1.272-.557 2.277zm8.907 3.875h-1.355v-7.925h1.355V326zm-1.465-10.027c0-.22.067-.405.201-.556.134-.152.333-.228.597-.228.264 0 .464.076.6.228a.8.8 0 0 1 .206.556.78.78 0 0 1-.205.55c-.137.146-.337.22-.6.22-.265 0-.464-.074-.598-.22a.782.782 0 0 1-.201-.55zM191.412 326c-.078-.156-.141-.435-.19-.835-.63.654-1.382.981-2.256.981-.781 0-1.422-.22-1.923-.662-.5-.442-.75-1.003-.75-1.681 0-.825.313-1.466.94-1.923.628-.456 1.51-.685 2.648-.685h1.319v-.622c0-.474-.142-.851-.425-1.132-.283-.28-.7-.421-1.253-.421-.483 0-.888.122-1.215.366-.328.244-.491.54-.491.886h-1.362c0-.395.14-.777.42-1.146.282-.368.662-.66 1.143-.875a3.844 3.844 0 0 1 1.586-.322c.913 0 1.628.228 2.146.685.518.456.786 1.085.806 1.886v3.647c0 .728.092 1.306.278 1.736V326h-1.42zm-2.248-1.033c.424 0 .827-.11 1.208-.33.38-.219.657-.505.828-.856v-1.626h-1.062c-1.66 0-2.49.486-2.49 1.457 0 .425.141.757.424.996.283.24.647.36 1.092.36zm10.129-1.07c0-.365-.138-.65-.414-.852-.276-.203-.757-.378-1.443-.524-.686-.146-1.23-.322-1.633-.527-.403-.205-.7-.45-.894-.733a1.752 1.752 0 0 1-.289-1.01c0-.65.275-1.2.824-1.648.55-.45 1.251-.674 2.106-.674.898 0 1.627.232 2.186.696.56.463.839 1.057.839 1.78h-1.363c0-.372-.157-.692-.472-.96-.315-.269-.712-.403-1.19-.403-.493 0-.88.107-1.157.322a1.014 1.014 0 0 0-.418.843c0 .327.13.573.388.74.26.165.727.324 1.403.475.676.152 1.224.332 1.644.542.42.21.731.463.934.758.203.296.304.656.304 1.08 0 .709-.283 1.276-.85 1.704-.566.427-1.3.64-2.204.64-.635 0-1.197-.112-1.685-.336a2.74 2.74 0 0 1-1.146-.942 2.268 2.268 0 0 1-.414-1.307h1.355c.025.454.206.814.546 1.08.34.266.787.4 1.344.4.512 0 .924-.104 1.234-.312.31-.207.465-.484.465-.831zm4.592 2.103h-1.355v-7.925h1.355V326zm-1.465-10.027c0-.22.068-.405.202-.556.134-.152.333-.228.597-.228.263 0 .464.076.6.228a.8.8 0 0 1 .205.556c0 .22-.068.403-.205.55-.136.146-.337.22-.6.22-.264 0-.463-.074-.597-.22a.782.782 0 0 1-.202-.55zm8.247 7.925c0-.366-.137-.65-.413-.853-.276-.203-.757-.378-1.443-.524-.686-.146-1.23-.322-1.634-.527-.402-.205-.7-.45-.893-.733a1.752 1.752 0 0 1-.29-1.01c0-.65.275-1.2.825-1.648.549-.45 1.25-.674 2.105-.674.899 0 1.628.232 2.187.696.559.463.838 1.057.838 1.78h-1.362c0-.372-.158-.692-.472-.96-.315-.269-.712-.403-1.19-.403-.494 0-.88.107-1.158.322a1.014 1.014 0 0 0-.417.843c0 .327.129.573.388.74.259.165.726.324 1.402.475.677.152 1.225.332 1.645.542.42.21.73.463.934.758.202.296.303.656.303 1.08 0 .709-.283 1.276-.85 1.704-.566.427-1.3.64-2.204.64-.635 0-1.196-.112-1.684-.336a2.74 2.74 0 0 1-1.147-.942 2.268 2.268 0 0 1-.413-1.307h1.355c.024.454.206.814.545 1.08.34.266.788.4 1.344.4.513 0 .924-.104 1.234-.312.31-.207.465-.484.465-.831zm119.01-83.245l.542-5.317h5.464v1.252h-4.314l-.323 2.908c.523-.308 1.116-.461 1.78-.461.972 0 1.743.32 2.315.963.57.642.857 1.51.857 2.604 0 1.098-.297 1.964-.89 2.596-.594.632-1.422.948-2.487.948-.942 0-1.711-.26-2.307-.783-.596-.523-.935-1.245-1.018-2.168h1.282c.083.61.3 1.07.651 1.38.352.31.816.466 1.392.466.63 0 1.124-.215 1.483-.645.36-.43.539-1.023.539-1.78 0-.713-.195-1.285-.583-1.717-.388-.432-.904-.649-1.549-.649-.59 0-1.054.13-1.391.389l-.36.293-1.083-.279zm13.52 1.765h1.48v1.106h-1.48V246h-1.362v-2.476h-4.856v-.798l4.775-7.39h1.443v7.082zm-4.68 0h3.318v-5.229l-.161.293-3.157 4.936zm7.266-5.031c0-.64.204-1.167.611-1.582.408-.415.932-.623 1.571-.623.65 0 1.176.209 1.579.626.403.418.604.959.604 1.623v.52c0 .644-.204 1.17-.612 1.578-.407.408-.926.612-1.556.612-.635 0-1.16-.204-1.575-.612-.415-.408-.622-.95-.622-1.63v-.512zm1.01.564c0 .38.108.694.323.94.215.247.503.37.864.37.347 0 .626-.119.839-.358.212-.24.318-.567.318-.982v-.534c0-.381-.105-.696-.315-.945-.21-.25-.495-.374-.857-.374-.361 0-.647.125-.857.374-.21.249-.315.574-.315.974v.535zm4.183 5.434c0-.64.203-1.166.611-1.578.408-.413.932-.619 1.571-.619.64 0 1.165.205 1.575.615.41.41.615.955.615 1.634v.52c0 .64-.204 1.165-.611 1.578-.408.413-.93.619-1.564.619-.635 0-1.16-.204-1.575-.612-.415-.407-.622-.95-.622-1.63v-.527zm1.01.572c0 .385.108.701.323.948.214.247.503.37.864.37.351 0 .632-.12.842-.363.21-.241.315-.57.315-.985v-.542c0-.385-.106-.7-.319-.945-.212-.244-.496-.366-.853-.366-.346 0-.628.121-.846.363-.217.241-.326.567-.326.978v.542zm-3.698 1.237l-.77-.483 5.208-8.335.77.483-5.208 8.335zM336.042 286h-6.988v-.974l3.692-4.102c.546-.62.924-1.124 1.131-1.512.208-.388.311-.79.311-1.205 0-.557-.168-1.013-.505-1.37-.337-.356-.786-.534-1.348-.534-.673 0-1.197.191-1.57.575-.374.383-.56.916-.56 1.6h-1.356c0-.981.316-1.775.949-2.38.632-.606 1.478-.909 2.537-.909.992 0 1.775.26 2.352.78.576.52.864 1.213.864 2.077 0 1.05-.67 2.3-2.007 3.75l-2.856 3.098h5.354V286zm8.32-9.902L339.945 286h-1.42l4.401-9.55h-5.771v-1.114h7.207v.762zm1.42 1.289c0-.64.205-1.167.612-1.582.408-.415.932-.623 1.571-.623.65 0 1.176.209 1.579.626.403.418.604.959.604 1.623v.52c0 .644-.204 1.17-.612 1.578-.407.408-.926.612-1.556.612-.635 0-1.16-.204-1.575-.612-.415-.408-.622-.95-.622-1.63v-.512zm1.011.564c0 .38.108.694.323.94.215.247.503.37.864.37.347 0 .626-.119.839-.358.212-.24.318-.567.318-.982v-.534c0-.381-.105-.696-.315-.945-.21-.25-.495-.374-.857-.374-.361 0-.647.125-.857.374-.21.249-.315.574-.315.974v.535zm4.183 5.434c0-.64.203-1.166.611-1.578.408-.413.932-.619 1.571-.619.64 0 1.165.205 1.575.615.41.41.615.955.615 1.634v.52c0 .64-.204 1.165-.611 1.578-.408.413-.93.619-1.564.619-.635 0-1.16-.204-1.575-.612-.415-.407-.622-.95-.622-1.63v-.527zm1.01.572c0 .385.108.701.323.948.214.247.503.37.864.37.351 0 .632-.12.842-.363.21-.241.315-.57.315-.985v-.542c0-.385-.106-.7-.319-.945-.212-.244-.496-.366-.853-.366-.346 0-.628.121-.846.363-.217.241-.326.567-.326.978v.542zm-3.698 1.237l-.77-.483 5.208-8.335.77.483-5.208 8.335zM333.507 326h-1.362v-9.03l-2.732 1.003v-1.23l3.882-1.458h.212V326zm9.163-4.688a3.315 3.315 0 0 1-1.014.813 2.752 2.752 0 0 1-1.293.308c-.615 0-1.151-.151-1.608-.454-.456-.303-.81-.729-1.058-1.278a4.357 4.357 0 0 1-.374-1.82c0-.713.136-1.355.407-1.926.27-.572.655-1.009 1.153-1.311.498-.303 1.08-.455 1.743-.455 1.055 0 1.886.395 2.494 1.183.608.789.912 1.864.912 3.227v.395c0 2.075-.41 3.59-1.23 4.545-.82.954-2.058 1.444-3.714 1.468h-.263v-1.142h.285c1.119-.02 1.978-.312 2.578-.875.601-.564.928-1.457.982-2.678zm-2.087 0c.454 0 .872-.139 1.256-.417a2.46 2.46 0 0 0 .838-1.033v-.542c0-.888-.193-1.611-.578-2.168-.386-.556-.874-.835-1.465-.835-.596 0-1.074.229-1.436.685-.361.457-.542 1.059-.542 1.806 0 .727.175 1.327.524 1.798.35.47.817.707 1.403.707zm5.2-3.925c0-.64.204-1.167.611-1.582.408-.415.932-.623 1.571-.623.65 0 1.176.209 1.579.626.403.418.604.959.604 1.623v.52c0 .644-.204 1.17-.612 1.578-.407.408-.926.612-1.556.612-.635 0-1.16-.204-1.575-.612-.415-.408-.622-.95-.622-1.63v-.512zm1.01.564c0 .38.108.694.323.94.215.247.503.37.864.37.347 0 .626-.119.839-.358.212-.24.318-.567.318-.982v-.534c0-.381-.105-.696-.315-.945-.21-.25-.495-.374-.857-.374-.361 0-.647.125-.857.374-.21.249-.315.574-.315.974v.535zm4.183 5.434c0-.64.203-1.166.611-1.578.408-.413.932-.619 1.571-.619.64 0 1.165.205 1.575.615.41.41.615.955.615 1.634v.52c0 .64-.204 1.165-.611 1.578-.408.413-.93.619-1.564.619-.635 0-1.16-.204-1.575-.612-.415-.407-.622-.95-.622-1.63v-.527zm1.01.572c0 .385.108.701.323.948.214.247.503.37.864.37.351 0 .632-.12.842-.363.21-.241.315-.57.315-.985v-.542c0-.385-.106-.7-.319-.945-.212-.244-.496-.366-.853-.366-.346 0-.628.121-.846.363-.217.241-.326.567-.326.978v.542zm-3.698 1.237l-.77-.483 5.208-8.335.77.483-5.208 8.335zM61.644 458.825V463h-1.406v-10.664h3.933c1.167 0 2.081.298 2.743.893.661.596.992 1.385.992 2.366 0 1.035-.323 1.832-.97 2.392-.647.559-1.574.838-2.78.838h-2.512zm0-1.15h2.527c.752 0 1.328-.177 1.728-.53.4-.355.601-.866.601-1.535 0-.635-.2-1.143-.6-1.524-.401-.38-.95-.578-1.649-.593h-2.607v4.182zM74.3 463c-.078-.156-.141-.435-.19-.835-.63.654-1.382.981-2.256.981-.781 0-1.422-.22-1.923-.662-.5-.442-.75-1.003-.75-1.681 0-.825.313-1.466.94-1.923.628-.456 1.51-.685 2.649-.685h1.318v-.622c0-.474-.142-.851-.425-1.132-.283-.28-.7-.421-1.252-.421-.484 0-.889.122-1.216.366-.327.244-.49.54-.49.886h-1.363c0-.395.14-.777.42-1.146.282-.368.663-.66 1.144-.875a3.844 3.844 0 0 1 1.585-.322c.913 0 1.629.228 2.146.685.518.456.786 1.085.806 1.886v3.647c0 .728.093 1.306.278 1.736V463h-1.42zm-2.248-1.033c.425 0 .827-.11 1.208-.33.381-.219.657-.505.828-.856v-1.626h-1.062c-1.66 0-2.49.486-2.49 1.457 0 .425.141.757.424.996.284.24.647.36 1.092.36zM79.039 463h-1.355v-7.925h1.355V463zm-1.465-10.027c0-.22.067-.405.202-.556.134-.152.333-.228.597-.228.263 0 .463.076.6.228a.8.8 0 0 1 .205.556c0 .22-.068.403-.205.55-.137.146-.337.22-.6.22-.264 0-.463-.074-.597-.22a.782.782 0 0 1-.202-.55zm4.915 2.102l.044.996c.605-.761 1.396-1.142 2.373-1.142 1.675 0 2.52.945 2.534 2.834V463h-1.355v-5.244c-.005-.571-.136-.994-.392-1.267-.256-.274-.655-.41-1.197-.41-.44 0-.826.117-1.158.351-.332.235-.59.542-.776.923V463h-1.355v-7.925h1.282zm17.724 6.057l1.524-6.057h1.355L100.785 463h-1.099l-1.926-6.006L95.885 463h-1.099l-2.3-7.925h1.348l1.56 5.933 1.846-5.933h1.091l1.882 6.057zm5.61-5.097c.601-.738 1.383-1.106 2.344-1.106 1.675 0 2.52.945 2.535 2.834V463h-1.355v-5.244c-.005-.571-.136-.994-.392-1.267-.257-.274-.656-.41-1.198-.41-.44 0-.825.117-1.157.351-.332.235-.59.542-.776.923V463h-1.355v-11.25h1.355v4.285zm8.38 6.965h-1.355v-7.925h1.355V463zm-1.465-10.027c0-.22.067-.405.201-.556.134-.152.333-.228.597-.228.264 0 .464.076.6.228a.8.8 0 0 1 .206.556.78.78 0 0 1-.205.55c-.137.146-.337.22-.6.22-.265 0-.464-.074-.598-.22a.782.782 0 0 1-.201-.55zM117.843 463h-1.355v-11.25h1.355V463zm5.456.146c-1.074 0-1.948-.352-2.622-1.058-.674-.705-1.01-1.649-1.01-2.83v-.25c0-.786.15-1.488.45-2.105.3-.618.72-1.101 1.26-1.45a3.167 3.167 0 0 1 1.754-.524c1.03 0 1.83.34 2.402 1.018.571.678.857 1.65.857 2.915v.564h-5.369c.02.781.248 1.412.685 1.893.437.481.993.722 1.667.722.478 0 .883-.098 1.215-.293.332-.196.623-.455.872-.777l.828.645c-.664 1.02-1.66 1.53-2.989 1.53zm-.168-7.104c-.547 0-1.006.199-1.377.597-.371.398-.6.956-.689 1.673h3.97v-.102c-.039-.689-.224-1.222-.556-1.6-.333-.379-.782-.568-1.348-.568zm13.432 6.174c-.527.62-1.3.93-2.321.93-.845 0-1.488-.245-1.93-.736-.442-.49-.666-1.217-.67-2.179v-5.156h1.355v5.12c0 1.201.488 1.802 1.464 1.802 1.036 0 1.724-.386 2.066-1.158v-5.764h1.355V463h-1.29l-.029-.784zm7.208-5.925a4.06 4.06 0 0 0-.667-.051c-.889 0-1.492.378-1.81 1.135V463h-1.354v-7.925h1.318l.022.916c.445-.708 1.074-1.062 1.89-1.062.264 0 .464.034.6.102v1.26zm2.717 6.709h-1.355v-7.925h1.355V463zm-1.465-10.027c0-.22.067-.405.201-.556.135-.152.334-.228.597-.228.264 0 .464.076.6.228a.8.8 0 0 1 .206.556c0 .22-.068.403-.205.55-.137.146-.337.22-.6.22-.264 0-.463-.074-.598-.22a.782.782 0 0 1-.201-.55zm4.915 2.102l.043.996c.606-.761 1.397-1.142 2.373-1.142 1.675 0 2.52.945 2.535 2.834V463h-1.355v-5.244c-.005-.571-.136-.994-.392-1.267-.257-.274-.656-.41-1.198-.41-.44 0-.825.117-1.157.351-.332.235-.59.542-.776.923V463h-1.355v-7.925h1.281zM161.825 463c-.078-.156-.142-.435-.19-.835-.63.654-1.383.981-2.257.981-.78 0-1.422-.22-1.922-.662-.5-.442-.75-1.003-.75-1.681 0-.825.313-1.466.94-1.923.628-.456 1.51-.685 2.648-.685h1.318v-.622c0-.474-.141-.851-.424-1.132-.284-.28-.701-.421-1.253-.421-.483 0-.889.122-1.216.366-.327.244-.49.54-.49.886h-1.363c0-.395.14-.777.421-1.146.281-.368.662-.66 1.143-.875a3.844 3.844 0 0 1 1.586-.322c.913 0 1.628.228 2.146.685.517.456.786 1.085.805 1.886v3.647c0 .728.093 1.306.279 1.736V463h-1.421zm-2.249-1.033c.425 0 .828-.11 1.209-.33.38-.219.656-.505.827-.856v-1.626h-1.062c-1.66 0-2.49.486-2.49 1.457 0 .425.142.757.425.996.283.24.647.36 1.091.36zm7.354-8.81v1.918h1.48v1.048h-1.48v4.914c0 .317.066.556.197.714.132.159.357.238.674.238.157 0 .371-.029.645-.088V463a3.928 3.928 0 0 1-1.04.146c-.606 0-1.062-.183-1.37-.549-.307-.366-.461-.886-.461-1.56v-4.914h-1.443v-1.048h1.443v-1.919h1.355zm4.533 9.843h-1.355v-7.925h1.355V463zM170 452.973c0-.22.067-.405.201-.556.134-.152.333-.228.597-.228.264 0 .464.076.6.228a.8.8 0 0 1 .206.556c0 .22-.069.403-.206.55-.136.146-.336.22-.6.22-.264 0-.463-.074-.597-.22a.782.782 0 0 1-.201-.55zm4.914 2.102l.044.996c.606-.761 1.397-1.142 2.373-1.142 1.675 0 2.52.945 2.534 2.834V463h-1.355v-5.244c-.005-.571-.135-.994-.392-1.267-.256-.274-.655-.41-1.197-.41-.44 0-.825.117-1.157.351a2.397 2.397 0 0 0-.777.923V463h-1.355v-7.925h1.282zm6.672 3.897c0-1.236.286-2.218.857-2.948.572-.73 1.329-1.095 2.27-1.095.968 0 1.722.342 2.264 1.025l.066-.879h1.238v7.735c0 1.025-.304 1.833-.912 2.424-.608.59-1.425.886-2.45.886-.571 0-1.13-.122-1.677-.366-.547-.244-.965-.579-1.253-1.004l.703-.813c.581.718 1.292 1.077 2.132 1.077.659 0 1.173-.185 1.542-.556.368-.372.552-.894.552-1.568v-.681c-.542.625-1.281.937-2.219.937-.927 0-1.678-.373-2.252-1.12-.574-.747-.86-1.765-.86-3.054zm1.363.153c0 .894.183 1.596.55 2.106.365.51.878.766 1.537.766.855 0 1.482-.389 1.882-1.165v-3.618c-.415-.757-1.037-1.135-1.867-1.135-.66 0-1.175.256-1.546.769-.37.512-.556 1.272-.556 2.277zm-139.305-26.3V437h-1.406v-10.664h3.933c1.167 0 2.081.298 2.743.893.661.596.992 1.385.992 2.366 0 1.035-.323 1.832-.97 2.392-.647.559-1.574.838-2.78.838h-2.512zm0-1.15h2.527c.752 0 1.328-.177 1.728-.53.4-.355.601-.866.601-1.535 0-.635-.2-1.143-.6-1.524-.401-.38-.95-.578-1.649-.593h-2.607v4.182zm11.675-1.384a4.06 4.06 0 0 0-.667-.051c-.888 0-1.491.378-1.809 1.135V437h-1.355v-7.925h1.319l.022.916c.444-.708 1.074-1.062 1.89-1.062.263 0 .463.034.6.102v1.26zm4.394 6.855c-1.074 0-1.948-.352-2.622-1.058-.674-.705-1.01-1.649-1.01-2.83v-.25c0-.786.15-1.488.45-2.105.3-.618.72-1.101 1.26-1.45a3.167 3.167 0 0 1 1.754-.524c1.03 0 1.831.34 2.402 1.018.572.678.857 1.65.857 2.915v.564h-5.368c.02.781.247 1.412.684 1.893.437.481.993.722 1.667.722.478 0 .883-.098 1.215-.293.332-.196.623-.455.872-.777l.828.645c-.664 1.02-1.66 1.53-2.989 1.53zm-.168-7.104c-.547 0-1.006.199-1.377.597-.371.398-.6.956-.689 1.673h3.97v-.102c-.039-.689-.224-1.222-.556-1.6-.332-.379-.782-.568-1.348-.568zm9.44 4.856c0-.366-.137-.65-.413-.853-.276-.203-.757-.378-1.443-.524-.686-.146-1.23-.322-1.633-.527-.403-.205-.7-.45-.894-.733a1.752 1.752 0 0 1-.289-1.01c0-.65.275-1.2.824-1.648.55-.45 1.251-.674 2.106-.674.898 0 1.627.232 2.186.696a2.21 2.21 0 0 1 .839 1.78h-1.363c0-.372-.157-.692-.472-.96-.315-.269-.712-.403-1.19-.403-.493 0-.88.107-1.158.322a1.014 1.014 0 0 0-.417.843c0 .327.13.573.388.74.259.165.726.324 1.403.475.676.152 1.224.332 1.644.542.42.21.731.463.934.758.203.296.304.656.304 1.08 0 .709-.283 1.276-.85 1.704-.566.427-1.301.64-2.204.64-.635 0-1.197-.112-1.685-.336a2.74 2.74 0 0 1-1.146-.942 2.268 2.268 0 0 1-.414-1.307h1.355c.024.454.206.814.546 1.08.339.266.787.4 1.344.4.512 0 .924-.104 1.234-.312.31-.207.465-.484.465-.831zm6.41 2.248c-1.075 0-1.949-.352-2.623-1.058-.673-.705-1.01-1.649-1.01-2.83v-.25c0-.786.15-1.488.45-2.105.3-.618.72-1.101 1.26-1.45a3.167 3.167 0 0 1 1.754-.524c1.03 0 1.831.34 2.402 1.018.572.678.857 1.65.857 2.915v.564h-5.368c.02.781.247 1.412.685 1.893.437.481.992.722 1.666.722.478 0 .884-.098 1.216-.293a3.07 3.07 0 0 0 .871-.777l.828.645c-.664 1.02-1.66 1.53-2.988 1.53zm-.169-7.104c-.547 0-1.006.199-1.377.597-.371.398-.6.956-.688 1.673h3.97v-.102c-.04-.689-.225-1.222-.557-1.6-.332-.379-.782-.568-1.348-.568zm6.108-.967l.044.996c.606-.761 1.397-1.142 2.373-1.142 1.675 0 2.52.945 2.535 2.834V437H84.93v-5.244c-.005-.571-.136-.994-.392-1.267-.257-.274-.656-.41-1.198-.41-.44 0-.825.117-1.157.351-.332.235-.59.542-.776.923V437h-1.355v-7.925h1.281zm8.833-1.919v1.92h1.48v1.047h-1.48v4.914c0 .317.066.556.198.714.132.159.357.238.674.238.156 0 .371-.029.645-.088V437a3.928 3.928 0 0 1-1.04.146c-.606 0-1.062-.183-1.37-.549-.308-.366-.462-.886-.462-1.56v-4.914H87.37v-1.048h1.442v-1.919h1.355zm3.018 9.134c0-.235.07-.43.209-.586.139-.157.348-.235.626-.235s.49.078.634.235a.831.831 0 0 1 .216.586.786.786 0 0 1-.216.564c-.144.15-.356.227-.634.227s-.487-.076-.626-.227a.802.802 0 0 1-.209-.564zm.007-6.468c0-.234.07-.43.21-.586.138-.156.347-.234.625-.234.279 0 .49.078.634.234a.831.831 0 0 1 .216.586.786.786 0 0 1-.216.564c-.144.152-.355.227-.634.227-.278 0-.487-.075-.626-.227a.802.802 0 0 1-.209-.564zM60.238 489v-10.664h3.486c1.157 0 2.028.24 2.611.718.584.478.875 1.186.875 2.124 0 .498-.141.938-.424 1.322-.284.383-.67.68-1.158.89a2.46 2.46 0 0 1 1.366.919c.335.451.502.99.502 1.615 0 .957-.31 1.709-.93 2.256-.62.547-1.497.82-2.63.82h-3.698zm1.406-4.988v3.838h2.322c.654 0 1.17-.17 1.549-.509.378-.34.568-.807.568-1.403 0-1.284-.699-1.926-2.095-1.926h-2.344zm0-1.128h2.124c.615 0 1.107-.154 1.476-.461.369-.308.553-.725.553-1.253 0-.586-.171-1.012-.513-1.278-.342-.266-.862-.399-1.56-.399h-2.08v3.391zM70.836 489H69.48v-11.25h1.355V489zm1.809-4.036c0-.776.153-1.474.458-2.094.305-.62.73-1.099 1.274-1.436.545-.337 1.166-.505 1.864-.505 1.08 0 1.952.373 2.619 1.12.666.747 1 1.741 1 2.981v.095c0 .772-.148 1.464-.444 2.077a3.365 3.365 0 0 1-1.267 1.432c-.55.342-1.18.512-1.893.512-1.074 0-1.945-.373-2.611-1.12-.667-.747-1-1.736-1-2.966v-.096zm1.362.161c0 .88.204 1.585.612 2.117.408.532.953.799 1.637.799.688 0 1.235-.27 1.64-.81.406-.54.608-1.295.608-2.267 0-.869-.206-1.573-.619-2.113-.412-.54-.96-.809-1.644-.809-.669 0-1.208.266-1.618.798-.41.533-.616 1.294-.616 2.285zm7.193-.16c0-.777.152-1.475.457-2.095.306-.62.73-1.099 1.275-1.436.544-.337 1.166-.505 1.864-.505 1.079 0 1.952.373 2.618 1.12.667.747 1 1.741 1 2.981v.095c0 .772-.148 1.464-.443 2.077a3.365 3.365 0 0 1-1.267 1.432c-.55.342-1.18.512-1.893.512-1.075 0-1.945-.373-2.612-1.12-.666-.747-1-1.736-1-2.966v-.096zm1.362.16c0 .88.204 1.585.612 2.117.407.532.953.799 1.637.799.688 0 1.235-.27 1.64-.81.405-.54.608-1.295.608-2.267 0-.869-.206-1.573-.619-2.113-.412-.54-.96-.809-1.644-.809-.67 0-1.209.266-1.619.798-.41.533-.615 1.294-.615 2.285zm7.222-.153c0-1.216.288-2.194.864-2.934.576-.74 1.33-1.11 2.263-1.11.928 0 1.663.318 2.205.953v-4.131h1.355V489h-1.245l-.066-.85c-.542.664-1.297.996-2.264.996-.917 0-1.666-.375-2.244-1.127-.579-.752-.868-1.734-.868-2.945v-.102zm1.355.153c0 .899.185 1.602.556 2.11.371.508.884.762 1.538.762.86 0 1.487-.386 1.883-1.158v-3.64c-.406-.747-1.028-1.12-1.868-1.12-.664 0-1.182.256-1.553.769-.37.512-.556 1.272-.556 2.277zm12.62 3.875h-1.356v-7.925h1.355V489zm-1.466-10.027c0-.22.068-.405.202-.556.134-.152.333-.228.597-.228.263 0 .464.076.6.228a.8.8 0 0 1 .205.556c0 .22-.068.403-.205.55-.136.146-.337.22-.6.22-.264 0-.463-.074-.597-.22a.782.782 0 0 1-.202-.55zm4.915 2.102l.044.996c.605-.761 1.396-1.142 2.373-1.142 1.675 0 2.52.945 2.534 2.834V489h-1.355v-5.244c-.005-.571-.135-.994-.392-1.267-.256-.274-.655-.41-1.197-.41-.44 0-.825.117-1.157.351a2.397 2.397 0 0 0-.777.923V489h-1.355v-7.925h1.282zm15.6 7.141c-.527.62-1.3.93-2.321.93-.845 0-1.488-.245-1.93-.736-.442-.49-.665-1.217-.67-2.179v-5.156h1.355v5.12c0 1.201.488 1.802 1.465 1.802 1.035 0 1.723-.386 2.065-1.158v-5.764h1.355V489h-1.29l-.028-.784zm7.208-5.925a4.06 4.06 0 0 0-.667-.051c-.889 0-1.492.378-1.809 1.135V489h-1.355v-7.925h1.318l.022.916c.445-.708 1.075-1.062 1.89-1.062.264 0 .464.034.6.102v1.26zm2.717 6.709h-1.355v-7.925h1.355V489zm-1.465-10.027c0-.22.067-.405.201-.556.135-.152.334-.228.597-.228.264 0 .464.076.601.228a.8.8 0 0 1 .205.556c0 .22-.068.403-.205.55-.137.146-.337.22-.6.22-.264 0-.463-.074-.598-.22a.782.782 0 0 1-.2-.55zm4.915 2.102l.044.996c.605-.761 1.396-1.142 2.373-1.142 1.674 0 2.52.945 2.534 2.834V489h-1.355v-5.244c-.005-.571-.136-.994-.392-1.267-.256-.274-.656-.41-1.198-.41-.439 0-.825.117-1.157.351-.332.235-.59.542-.776.923V489H134.9v-7.925h1.282zm10.283 8.071c-1.074 0-1.948-.352-2.622-1.058-.674-.705-1.011-1.649-1.011-2.83v-.25c0-.786.15-1.488.45-2.105.3-.618.72-1.101 1.26-1.45a3.167 3.167 0 0 1 1.754-.524c1.03 0 1.831.34 2.403 1.018.571.678.857 1.65.857 2.915v.564h-5.369c.02.781.248 1.412.685 1.893.437.481.992.722 1.666.722.479 0 .884-.098 1.216-.293a3.07 3.07 0 0 0 .871-.777l.828.645c-.664 1.02-1.66 1.53-2.988 1.53zm-.169-7.104c-.547 0-1.005.199-1.377.597-.37.398-.6.956-.688 1.673h3.97v-.102c-.04-.689-.225-1.222-.557-1.6-.332-.379-.781-.568-1.348-.568zm-78.552 22.294v7.25c-.005 1.007-.32 1.83-.948 2.47-.628.639-1.479.998-2.553 1.076l-.373.014c-1.167 0-2.098-.314-2.79-.944-.694-.63-1.046-1.497-1.056-2.6v-7.266h1.392v7.222c0 .771.212 1.37.637 1.798.425.427 1.03.64 1.817.64.796 0 1.405-.212 1.827-.637.422-.424.634-1.023.634-1.794v-7.23h1.413zm5.838 3.955a4.06 4.06 0 0 0-.667-.051c-.889 0-1.492.378-1.81 1.135V515h-1.354v-7.925h1.318l.022.916c.445-.708 1.074-1.062 1.89-1.062.264 0 .464.034.6.102v1.26zM76.3 515h-1.355v-7.925H76.3V515zm-1.465-10.027c0-.22.067-.405.201-.556.135-.152.334-.228.597-.228.264 0 .464.076.6.228a.8.8 0 0 1 .206.556c0 .22-.068.403-.205.55-.137.146-.337.22-.6.22-.264 0-.463-.074-.598-.22a.782.782 0 0 1-.201-.55zm4.915 2.102l.043.996c.606-.761 1.397-1.142 2.374-1.142 1.674 0 2.519.945 2.534 2.834V515h-1.355v-5.244c-.005-.571-.136-.994-.392-1.267-.256-.274-.656-.41-1.198-.41-.44 0-.825.117-1.157.351-.332.235-.59.542-.776.923V515h-1.355v-7.925h1.282zM91.637 515c-.078-.156-.142-.435-.19-.835-.63.654-1.383.981-2.257.981-.78 0-1.422-.22-1.922-.662-.5-.442-.75-1.003-.75-1.681 0-.825.313-1.466.94-1.923.628-.456 1.51-.685 2.648-.685h1.318v-.622c0-.474-.141-.851-.424-1.132-.284-.28-.701-.421-1.253-.421-.483 0-.889.122-1.216.366-.327.244-.49.54-.49.886h-1.363c0-.395.14-.777.421-1.146.281-.368.662-.66 1.143-.875a3.844 3.844 0 0 1 1.586-.322c.913 0 1.628.228 2.146.685.517.456.786 1.085.805 1.886v3.647c0 .728.093 1.306.279 1.736V515h-1.421zm-2.249-1.033c.425 0 .828-.11 1.209-.33.38-.219.656-.505.827-.856v-1.626h-1.062c-1.66 0-2.49.486-2.49 1.457 0 .425.142.757.425.996.283.24.647.36 1.091.36zm7.354-8.81v1.918h1.48v1.048h-1.48v4.914c0 .317.066.556.197.714.132.159.357.238.674.238.157 0 .371-.029.645-.088V515a3.928 3.928 0 0 1-1.04.146c-.606 0-1.062-.183-1.37-.549-.307-.366-.461-.886-.461-1.56v-4.914h-1.443v-1.048h1.443v-1.919h1.355zm4.533 9.843H99.92v-7.925h1.355V515zm-1.464-10.027c0-.22.067-.405.201-.556.134-.152.333-.228.597-.228.264 0 .464.076.6.228a.8.8 0 0 1 .206.556c0 .22-.069.403-.206.55-.136.146-.336.22-.6.22-.264 0-.463-.074-.597-.22a.782.782 0 0 1-.201-.55zm4.914 2.102l.044.996c.606-.761 1.397-1.142 2.373-1.142 1.675 0 2.52.945 2.534 2.834V515h-1.355v-5.244c-.005-.571-.135-.994-.392-1.267-.256-.274-.655-.41-1.197-.41-.44 0-.825.117-1.157.351a2.397 2.397 0 0 0-.777.923V515h-1.355v-7.925h1.282zm6.672 3.897c0-1.236.286-2.218.857-2.948.572-.73 1.329-1.095 2.27-1.095.968 0 1.722.342 2.264 1.025l.066-.879h1.238v7.735c0 1.025-.304 1.833-.912 2.424-.608.59-1.425.886-2.45.886-.571 0-1.13-.122-1.677-.366-.547-.244-.965-.579-1.253-1.004l.703-.813c.581.718 1.292 1.077 2.132 1.077.659 0 1.173-.185 1.542-.556.368-.372.552-.894.552-1.568v-.681c-.542.625-1.281.937-2.219.937-.927 0-1.678-.373-2.252-1.12-.574-.747-.86-1.765-.86-3.054zm1.363.153c0 .894.183 1.596.55 2.106.365.51.878.766 1.537.766.855 0 1.482-.389 1.882-1.165v-3.618c-.415-.757-1.037-1.135-1.867-1.135-.66 0-1.174.256-1.546.769-.37.512-.556 1.272-.556 2.277zM128.74 515c-.078-.156-.141-.435-.19-.835-.63.654-1.382.981-2.256.981-.781 0-1.422-.22-1.923-.662-.5-.442-.75-1.003-.75-1.681 0-.825.313-1.466.94-1.923.628-.456 1.51-.685 2.648-.685h1.319v-.622c0-.474-.142-.851-.425-1.132-.283-.28-.7-.421-1.252-.421-.484 0-.89.122-1.216.366-.327.244-.491.54-.491.886h-1.362c0-.395.14-.777.42-1.146.282-.368.662-.66 1.143-.875a3.844 3.844 0 0 1 1.586-.322c.913 0 1.629.228 2.146.685.518.456.786 1.085.806 1.886v3.647c0 .728.093 1.306.278 1.736V515h-1.42zm-2.248-1.033c.424 0 .827-.11 1.208-.33.381-.219.657-.505.828-.856v-1.626h-1.062c-1.66 0-2.49.486-2.49 1.457 0 .425.141.757.424.996.284.24.647.36 1.092.36zm7.353-8.81v1.918h1.48v1.048h-1.48v4.914c0 .317.066.556.198.714.132.159.356.238.674.238.156 0 .37-.029.644-.088V515a3.928 3.928 0 0 1-1.04.146c-.605 0-1.062-.183-1.37-.549-.307-.366-.46-.886-.46-1.56v-4.914h-1.444v-1.048h1.443v-1.919h1.355zm8.057 1.918l.044.996c.605-.761 1.396-1.142 2.373-1.142 1.675 0 2.52.945 2.534 2.834V515h-1.355v-5.244c-.005-.571-.135-.994-.392-1.267-.256-.274-.655-.41-1.197-.41-.44 0-.826.117-1.158.351-.332.235-.59.542-.776.923V515h-1.355v-7.925h1.282zM150.37 515h-1.355v-7.925h1.355V515zm-1.465-10.027c0-.22.067-.405.201-.556.134-.152.333-.228.597-.228.264 0 .464.076.6.228a.8.8 0 0 1 .206.556.78.78 0 0 1-.205.55c-.137.146-.337.22-.6.22-.265 0-.464-.074-.598-.22a.782.782 0 0 1-.201-.55zm3.31 5.999c0-1.236.286-2.218.857-2.948.572-.73 1.328-1.095 2.27-1.095.968 0 1.722.342 2.264 1.025l.066-.879h1.238v7.735c0 1.025-.304 1.833-.912 2.424-.608.59-1.425.886-2.45.886-.571 0-1.13-.122-1.677-.366-.547-.244-.965-.579-1.253-1.004l.703-.813c.581.718 1.292 1.077 2.132 1.077.659 0 1.173-.185 1.541-.556.369-.372.553-.894.553-1.568v-.681c-.542.625-1.281.937-2.219.937-.928 0-1.678-.373-2.252-1.12-.574-.747-.86-1.765-.86-3.054zm1.363.153c0 .894.183 1.596.549 2.106.366.51.879.766 1.538.766.855 0 1.482-.389 1.882-1.165v-3.618c-.415-.757-1.037-1.135-1.867-1.135-.66 0-1.175.256-1.546.769-.37.512-.556 1.272-.556 2.277zm8.73-3.09c.6-.738 1.382-1.106 2.344-1.106 1.675 0 2.52.945 2.534 2.834V515h-1.355v-5.244c-.005-.571-.135-.994-.392-1.267-.256-.274-.655-.41-1.197-.41-.44 0-.825.117-1.158.351-.332.235-.59.542-.776.923V515h-1.355v-11.25h1.355v4.285zm8.745-2.879v1.92h1.48v1.047h-1.48v4.914c0 .317.066.556.198.714.132.159.356.238.674.238.156 0 .37-.029.644-.088V515a3.928 3.928 0 0 1-1.04.146c-.605 0-1.062-.183-1.37-.549-.307-.366-.46-.886-.46-1.56v-4.914h-1.444v-1.048h1.443v-1.919h1.355zM67.606 531.493h-3.428V541H62.78v-9.507h-3.42v-1.157h8.247v1.157zm4.65 2.798a4.06 4.06 0 0 0-.666-.051c-.888 0-1.491.378-1.809 1.135V541h-1.355v-7.925h1.319l.022.916c.444-.708 1.074-1.062 1.89-1.062.263 0 .463.034.6.102v1.26zm.74 2.673c0-.776.153-1.474.458-2.094.306-.62.73-1.099 1.275-1.436.544-.337 1.166-.505 1.864-.505 1.079 0 1.952.373 2.618 1.12.667.747 1 1.741 1 2.981v.095c0 .772-.148 1.464-.443 2.077a3.365 3.365 0 0 1-1.267 1.432c-.55.342-1.18.512-1.894.512-1.074 0-1.944-.373-2.61-1.12-.667-.747-1-1.736-1-2.966v-.096zm1.363.161c0 .88.204 1.585.611 2.117.408.532.954.799 1.637.799.689 0 1.236-.27 1.641-.81s.608-1.295.608-2.267c0-.869-.206-1.573-.619-2.113-.413-.54-.96-.809-1.644-.809-.67 0-1.209.266-1.619.798-.41.533-.615 1.294-.615 2.285zm12.444 3.091c-.528.62-1.302.93-2.322.93-.845 0-1.488-.245-1.93-.736-.442-.49-.665-1.217-.67-2.179v-5.156h1.355v5.12c0 1.201.488 1.802 1.465 1.802 1.035 0 1.723-.386 2.065-1.158v-5.764h1.355V541h-1.289l-.03-.784zm10.085-3.09c0 1.21-.278 2.183-.835 2.918-.556.735-1.303 1.102-2.241 1.102-1.001 0-1.775-.354-2.322-1.062l-.066.916H90.18v-11.25h1.355v4.197c.547-.679 1.301-1.018 2.263-1.018s1.718.363 2.267 1.091c.55.728.824 1.724.824 2.988v.117zm-1.355-.154c0-.923-.178-1.636-.534-2.139-.357-.503-.87-.754-1.539-.754-.893 0-1.535.415-1.926 1.245v3.427c.415.83 1.062 1.246 1.941 1.246.65 0 1.155-.252 1.516-.755.362-.503.542-1.26.542-2.27zm4.534 4.028h-1.355v-11.25h1.355V541zm5.456.146c-1.074 0-1.948-.352-2.622-1.058-.673-.705-1.01-1.649-1.01-2.83v-.25c0-.786.15-1.488.45-2.105.3-.618.72-1.101 1.26-1.45a3.167 3.167 0 0 1 1.754-.524c1.03 0 1.831.34 2.402 1.018.572.678.857 1.65.857 2.915v.564h-5.368c.02.781.247 1.412.684 1.893.437.481.993.722 1.667.722.478 0 .883-.098 1.216-.293a3.07 3.07 0 0 0 .871-.777l.828.645c-.664 1.02-1.66 1.53-2.989 1.53zm-.168-7.104c-.547 0-1.006.199-1.377.597-.371.398-.6.956-.688 1.673h3.97v-.102c-.04-.689-.225-1.222-.557-1.6-.332-.379-.782-.568-1.348-.568zm15.249 3.083c0 1.211-.278 2.184-.835 2.92-.557.734-1.304 1.101-2.241 1.101-1.001 0-1.775-.354-2.322-1.062l-.066.916h-1.245v-11.25h1.355v4.197c.547-.679 1.301-1.018 2.263-1.018s1.718.363 2.267 1.091c.55.728.824 1.724.824 2.988v.117zm-1.355-.153c0-.923-.178-1.636-.535-2.139-.356-.503-.869-.754-1.538-.754-.893 0-1.535.415-1.926 1.245v3.427c.415.83 1.062 1.246 1.94 1.246.65 0 1.156-.252 1.517-.755s.542-1.26.542-2.27zm6.35 4.174c-1.074 0-1.948-.352-2.622-1.058-.674-.705-1.01-1.649-1.01-2.83v-.25c0-.786.15-1.488.45-2.105.3-.618.72-1.101 1.26-1.45a3.167 3.167 0 0 1 1.754-.524c1.03 0 1.83.34 2.402 1.018.571.678.857 1.65.857 2.915v.564h-5.369c.02.781.248 1.412.685 1.893.437.481.993.722 1.666.722.479 0 .884-.098 1.216-.293.332-.196.623-.455.872-.777l.827.645c-.664 1.02-1.66 1.53-2.988 1.53zm-.168-7.104c-.547 0-1.006.199-1.377.597-.371.398-.6.956-.689 1.673h3.97v-.102c-.04-.689-.225-1.222-.557-1.6-.332-.379-.78-.568-1.347-.568zm4.504 2.93c0-1.236.286-2.218.857-2.948s1.328-1.095 2.27-1.095c.967 0 1.722.342 2.264 1.025l.066-.879h1.237v7.735c0 1.025-.304 1.833-.911 2.424-.608.59-1.425.886-2.45.886-.572 0-1.13-.122-1.678-.366-.547-.244-.964-.579-1.252-1.004l.703-.813c.581.718 1.292 1.077 2.131 1.077.66 0 1.173-.185 1.542-.556.369-.372.553-.894.553-1.568v-.681c-.542.625-1.282.937-2.22.937-.927 0-1.678-.373-2.251-1.12-.574-.747-.86-1.765-.86-3.054zm1.362.153c0 .894.183 1.596.55 2.106.366.51.879.766 1.538.766.854 0 1.482-.389 1.882-1.165v-3.618c-.415-.757-1.038-1.135-1.868-1.135-.659 0-1.174.256-1.545.769-.371.512-.557 1.272-.557 2.277zm8.848 3.875h-1.355v-7.925h1.355V541zm-1.465-10.027c0-.22.067-.405.202-.556.134-.152.333-.228.597-.228.263 0 .463.076.6.228a.8.8 0 0 1 .205.556c0 .22-.068.403-.205.55-.137.146-.337.22-.6.22-.264 0-.463-.074-.597-.22a.782.782 0 0 1-.202-.55zm4.915 2.102l.044.996c.605-.761 1.396-1.142 2.373-1.142 1.675 0 2.52.945 2.534 2.834V541h-1.355v-5.244c-.005-.571-.136-.994-.392-1.267-.256-.274-.655-.41-1.197-.41-.44 0-.826.117-1.158.351-.332.235-.59.542-.776.923V541h-1.355v-7.925h1.282zm8.276 0l.044.996c.606-.761 1.397-1.142 2.373-1.142 1.675 0 2.52.945 2.534 2.834V541h-1.355v-5.244c-.005-.571-.135-.994-.392-1.267-.256-.274-.655-.41-1.197-.41-.44 0-.825.117-1.157.351a2.397 2.397 0 0 0-.777.923V541h-1.355v-7.925h1.282zm8.467 7.925h-1.355v-7.925h1.355V541zm-1.465-10.027c0-.22.067-.405.201-.556.135-.152.334-.228.597-.228.264 0 .464.076.601.228a.8.8 0 0 1 .205.556c0 .22-.068.403-.205.55-.137.146-.337.22-.6.22-.264 0-.463-.074-.598-.22a.782.782 0 0 1-.201-.55zm4.915 2.102l.044.996c.605-.761 1.396-1.142 2.373-1.142 1.674 0 2.52.945 2.534 2.834V541h-1.355v-5.244c-.005-.571-.136-.994-.392-1.267-.256-.274-.656-.41-1.198-.41-.439 0-.825.117-1.157.351-.332.235-.59.542-.776.923V541h-1.355v-7.925h1.282zm6.672 3.897c0-1.236.286-2.218.857-2.948s1.328-1.095 2.27-1.095c.967 0 1.722.342 2.264 1.025l.066-.879h1.237v7.735c0 1.025-.304 1.833-.912 2.424-.607.59-1.424.886-2.45.886-.57 0-1.13-.122-1.677-.366-.547-.244-.964-.579-1.252-1.004l.703-.813c.581.718 1.291 1.077 2.131 1.077.66 0 1.173-.185 1.542-.556.369-.372.553-.894.553-1.568v-.681c-.542.625-1.282.937-2.22.937-.927 0-1.678-.373-2.251-1.12-.574-.747-.861-1.765-.861-3.054zm1.362.153c0 .894.183 1.596.55 2.106.366.51.878.766 1.538.766.854 0 1.482-.389 1.882-1.165v-3.618c-.415-.757-1.038-1.135-1.868-1.135-.659 0-1.174.256-1.545.769-.371.512-.557 1.272-.557 2.277zm15.982 3.091c-.528.62-1.302.93-2.322.93-.845 0-1.488-.245-1.93-.736-.442-.49-.665-1.217-.67-2.179v-5.156h1.355v5.12c0 1.201.488 1.802 1.465 1.802 1.035 0 1.723-.386 2.065-1.158v-5.764h1.355V541h-1.289l-.03-.784zm7.207-5.925a4.06 4.06 0 0 0-.667-.051c-.888 0-1.491.378-1.809 1.135V541h-1.355v-7.925h1.319l.022.916c.444-.708 1.074-1.062 1.89-1.062.263 0 .463.034.6.102v1.26zm2.717 6.709h-1.355v-7.925h1.355V541zm-1.465-10.027c0-.22.067-.405.202-.556.134-.152.333-.228.597-.228.263 0 .463.076.6.228a.8.8 0 0 1 .205.556c0 .22-.068.403-.205.55-.137.146-.337.22-.6.22-.264 0-.463-.074-.597-.22a.782.782 0 0 1-.202-.55zm4.915 2.102l.044.996c.605-.761 1.396-1.142 2.373-1.142 1.675 0 2.52.945 2.534 2.834V541h-1.355v-5.244c-.005-.571-.136-.994-.392-1.267-.256-.274-.655-.41-1.197-.41-.44 0-.826.117-1.158.351-.332.235-.59.542-.776.923V541h-1.355v-7.925h1.282zM213.065 541c-.078-.156-.142-.435-.19-.835-.63.654-1.382.981-2.256.981-.782 0-1.422-.22-1.923-.662-.5-.442-.75-1.003-.75-1.681 0-.825.313-1.466.94-1.923.628-.456 1.51-.685 2.648-.685h1.319v-.622c0-.474-.142-.851-.425-1.132-.283-.28-.7-.421-1.253-.421-.483 0-.888.122-1.216.366-.327.244-.49.54-.49.886h-1.363c0-.395.14-.777.422-1.146.28-.368.661-.66 1.142-.875a3.844 3.844 0 0 1 1.586-.322c.913 0 1.628.228 2.146.685.517.456.786 1.085.806 1.886v3.647c0 .728.092 1.306.278 1.736V541h-1.421zm-2.249-1.033c.425 0 .828-.11 1.209-.33.38-.219.657-.505.828-.856v-1.626h-1.062c-1.66 0-2.49.486-2.49 1.457 0 .425.14.757.424.996.283.24.647.36 1.091.36zm7.354-8.81v1.918h1.48v1.048h-1.48v4.914c0 .317.066.556.198.714.132.159.356.238.674.238.156 0 .37-.029.644-.088V541a3.928 3.928 0 0 1-1.04.146c-.605 0-1.062-.183-1.37-.549-.307-.366-.461-.886-.461-1.56v-4.914h-1.443v-1.048h1.443v-1.919h1.355zm4.534 9.843h-1.355v-7.925h1.355V541zm-1.465-10.027c0-.22.067-.405.201-.556.134-.152.333-.228.597-.228.264 0 .464.076.6.228a.8.8 0 0 1 .206.556.78.78 0 0 1-.205.55c-.137.146-.337.22-.6.22-.265 0-.464-.074-.598-.22a.782.782 0 0 1-.201-.55zm3.274 5.991c0-.776.152-1.474.457-2.094.306-.62.73-1.099 1.275-1.436.544-.337 1.166-.505 1.864-.505 1.079 0 1.952.373 2.618 1.12.667.747 1 1.741 1 2.981v.095c0 .772-.148 1.464-.443 2.077a3.365 3.365 0 0 1-1.267 1.432c-.55.342-1.18.512-1.893.512-1.075 0-1.945-.373-2.612-1.12-.666-.747-1-1.736-1-2.966v-.096zm1.362.161c0 .88.204 1.585.612 2.117.407.532.953.799 1.637.799.688 0 1.235-.27 1.64-.81.405-.54.608-1.295.608-2.267 0-.869-.206-1.573-.619-2.113-.412-.54-.96-.809-1.644-.809-.67 0-1.209.266-1.619.798-.41.533-.615 1.294-.615 2.285zm8.833-4.05l.044.996c.605-.761 1.396-1.142 2.373-1.142 1.675 0 2.52.945 2.534 2.834V541h-1.355v-5.244c-.005-.571-.135-.994-.392-1.267-.256-.274-.655-.41-1.197-.41-.44 0-.825.117-1.157.351a2.397 2.397 0 0 0-.777.923V541h-1.355v-7.925h1.282zM64.149 562.686h-2.505V567H60.23v-10.664h3.53c1.202 0 2.126.273 2.773.82.647.547.97 1.343.97 2.388 0 .664-.179 1.243-.538 1.736-.359.493-.858.862-1.498 1.106l2.505 4.526V567h-1.509l-2.314-4.314zm-2.505-1.15h2.16c.699 0 1.254-.18 1.667-.542.413-.361.619-.845.619-1.45 0-.66-.197-1.165-.59-1.516-.393-.352-.96-.53-1.703-.535h-2.153v4.043zm10.906 5.61c-1.074 0-1.948-.352-2.622-1.058-.674-.705-1.011-1.649-1.011-2.83v-.25c0-.786.15-1.488.45-2.105.3-.618.72-1.101 1.26-1.45a3.167 3.167 0 0 1 1.754-.524c1.03 0 1.831.34 2.403 1.018.571.678.857 1.65.857 2.915v.564h-5.369c.02.781.248 1.412.685 1.893.437.481.992.722 1.666.722.479 0 .884-.098 1.216-.293a3.07 3.07 0 0 0 .871-.777l.828.645c-.664 1.02-1.66 1.53-2.988 1.53zm-.169-7.104c-.547 0-1.006.199-1.377.597-.37.398-.6.956-.688 1.673h3.97v-.102c-.04-.689-.225-1.222-.557-1.6-.332-.379-.781-.568-1.348-.568zm8.006 5.999c.483 0 .905-.147 1.267-.44.361-.293.561-.66.6-1.099h1.282c-.024.455-.18.887-.469 1.297-.288.41-.672.737-1.153.981s-.99.366-1.527.366c-1.08 0-1.938-.36-2.575-1.08-.637-.72-.956-1.705-.956-2.955v-.227c0-.772.142-1.458.425-2.058.283-.6.69-1.067 1.22-1.4.53-.331 1.156-.497 1.878-.497.89 0 1.628.266 2.216.798.588.532.902 1.223.941 2.073h-1.282c-.039-.513-.233-.934-.582-1.264-.349-.33-.78-.494-1.293-.494-.688 0-1.222.248-1.6.743-.378.496-.568 1.213-.568 2.15v.256c0 .913.188 1.617.564 2.11.376.493.913.74 1.612.74zm7.961 1.105c-1.074 0-1.948-.352-2.622-1.058-.674-.705-1.01-1.649-1.01-2.83v-.25c0-.786.15-1.488.45-2.105.3-.618.72-1.101 1.26-1.45a3.167 3.167 0 0 1 1.754-.524c1.03 0 1.83.34 2.402 1.018.571.678.857 1.65.857 2.915v.564H86.07c.02.781.248 1.412.685 1.893.437.481.993.722 1.666.722.479 0 .884-.098 1.216-.293.332-.196.623-.455.872-.777l.827.645c-.664 1.02-1.66 1.53-2.988 1.53zm-.168-7.104c-.547 0-1.006.199-1.377.597-.371.398-.6.956-.689 1.673h3.97v-.102c-.04-.689-.225-1.222-.557-1.6-.332-.379-.78-.568-1.347-.568zm6.108-.967l.044.996c.606-.761 1.397-1.142 2.373-1.142 1.675 0 2.52.945 2.534 2.834V567h-1.355v-5.244c-.005-.571-.135-.994-.392-1.267-.256-.274-.655-.41-1.197-.41-.44 0-.825.117-1.157.351a2.397 2.397 0 0 0-.777.923V567h-1.355v-7.925h1.282zm8.833-1.919v1.92h1.48v1.047h-1.48v4.914c0 .317.066.556.198.714.132.159.356.238.674.238.156 0 .37-.029.644-.088V567a3.928 3.928 0 0 1-1.04.146c-.605 0-1.062-.183-1.37-.549-.307-.366-.46-.886-.46-1.56v-4.914h-1.444v-1.048h1.443v-1.919h1.355zm9.954 8.885c.483 0 .905-.147 1.267-.44.361-.293.561-.66.6-1.099h1.282c-.024.455-.18.887-.469 1.297-.288.41-.672.737-1.153.981s-.99.366-1.527.366c-1.08 0-1.938-.36-2.575-1.08-.637-.72-.956-1.705-.956-2.955v-.227c0-.772.142-1.458.425-2.058.283-.6.69-1.067 1.22-1.4.53-.331 1.156-.497 1.878-.497.89 0 1.628.266 2.216.798.588.532.902 1.223.941 2.073h-1.282c-.039-.513-.233-.934-.582-1.264-.349-.33-.78-.494-1.293-.494-.688 0-1.222.248-1.6.743-.378.496-.568 1.213-.568 2.15v.256c0 .913.188 1.617.564 2.11.376.493.913.74 1.612.74zm6.028-6.006c.6-.738 1.381-1.106 2.343-1.106 1.675 0 2.52.945 2.534 2.834V567h-1.355v-5.244c-.004-.571-.135-.994-.391-1.267-.257-.274-.656-.41-1.198-.41-.44 0-.825.117-1.157.351-.332.235-.59.542-.776.923V567h-1.355v-11.25h1.355v4.285zM127.48 567h-1.355v-7.925h1.355V567zm-1.464-10.027c0-.22.067-.405.201-.556.134-.152.333-.228.597-.228.264 0 .464.076.6.228a.8.8 0 0 1 .206.556.78.78 0 0 1-.205.55c-.137.146-.337.22-.601.22-.264 0-.463-.074-.597-.22a.782.782 0 0 1-.201-.55zM131.122 567h-1.355v-11.25h1.355V567zm1.838-4.028c0-1.216.288-2.194.864-2.934.576-.74 1.33-1.11 2.263-1.11.928 0 1.663.318 2.205.953v-4.131h1.355V567h-1.245l-.066-.85c-.542.664-1.296.996-2.263.996-.918 0-1.667-.375-2.245-1.127-.579-.752-.868-1.734-.868-2.945v-.102zm1.355.153c0 .899.185 1.602.557 2.11.37.508.883.762 1.538.762.859 0 1.486-.386 1.882-1.158v-3.64c-.405-.747-1.028-1.12-1.868-1.12-.664 0-1.181.256-1.552.769-.372.512-.557 1.272-.557 2.277zm14.143 0c0 1.211-.278 2.184-.835 2.92-.557.734-1.304 1.101-2.241 1.101-1.001 0-1.775-.354-2.322-1.062l-.066.916h-1.245v-11.25h1.355v4.197c.547-.679 1.301-1.018 2.263-1.018s1.718.363 2.267 1.091c.55.728.824 1.724.824 2.988v.117zm-1.355-.153c0-.923-.178-1.636-.535-2.139-.356-.503-.869-.754-1.538-.754-.893 0-1.535.415-1.926 1.245v3.427c.415.83 1.062 1.246 1.94 1.246.65 0 1.156-.252 1.517-.755s.542-1.26.542-2.27zm4.534 4.028h-1.355v-7.925h1.355V567zm-1.465-10.027c0-.22.067-.405.201-.556.135-.152.334-.228.597-.228.264 0 .464.076.6.228a.8.8 0 0 1 .206.556c0 .22-.068.403-.205.55-.137.146-.337.22-.6.22-.264 0-.463-.074-.598-.22a.782.782 0 0 1-.201-.55zm7.463 3.318a4.06 4.06 0 0 0-.666-.051c-.889 0-1.492.378-1.81 1.135V567h-1.354v-7.925h1.318l.022.916c.444-.708 1.074-1.062 1.89-1.062.263 0 .464.034.6.102v1.26zm.777 2.68c0-1.215.288-2.193.864-2.933.576-.74 1.33-1.11 2.263-1.11.928 0 1.663.318 2.205.953v-4.131h1.355V567h-1.245l-.066-.85c-.542.664-1.297.996-2.264.996-.918 0-1.666-.375-2.244-1.127-.58-.752-.868-1.734-.868-2.945v-.102zm1.355.154c0 .899.185 1.602.556 2.11.371.508.884.762 1.538.762.86 0 1.487-.386 1.883-1.158v-3.64c-.406-.747-1.028-1.12-1.868-1.12-.664 0-1.182.256-1.553.769-.37.512-.556 1.272-.556 2.277zm9.272-5.969v1.92h1.48v1.047h-1.48v4.914c0 .317.066.556.198.714.132.159.356.238.674.238.156 0 .37-.029.644-.088V567a3.928 3.928 0 0 1-1.04.146c-.605 0-1.062-.183-1.37-.549-.307-.366-.46-.886-.46-1.56v-4.914h-1.444v-1.048h1.443v-1.919h1.355zm4.417 2.879c.6-.738 1.381-1.106 2.343-1.106 1.675 0 2.52.945 2.534 2.834V567h-1.354v-5.244c-.005-.571-.136-.994-.392-1.267-.257-.274-.656-.41-1.198-.41-.44 0-.825.117-1.157.351-.332.235-.59.542-.776.923V567H172.1v-11.25h1.355v4.285z" fill="#475561" fill-rule="nonzero"/><path d="M42 459l3 3 5-5m-8 28l3 3 5-5m-8 28l3 3 5-5m-8 28l3 3 5-5m-8 28l3 3 5-5" stroke="#1AC98E" stroke-width="2"/><path d="M73 77h259c17.673 0 32 14.327 32 32 0 17.673-14.327 32-32 32H73c-17.673 0-32-14.327-32-32 0-17.673 14.327-32 32-32z" fill="#D7ECFF"/><g transform="translate(45 81)"><circle fill="#5CAAF4" cx="28" cy="28" r="28"/><g transform="translate(15 15)"><circle fill="#FFF" cx="21" cy="18" r="1"/><path d="M0 5a9 9 0 1 0 18 0M0 5V0h3m12 0h3v5m-9 9v8m0 0a6 6 0 1 0 12 0" stroke="#FFF" stroke-width="2"/><circle stroke="#FFF" stroke-width="2" cx="21" cy="18" r="4"/></g></g><path d="M116.054 103.336l3.487 8.701 3.486-8.701h1.824V114h-1.407v-4.153l.132-4.482-3.5 8.635h-1.077l-3.494-8.613.139 4.46V114h-1.406v-10.664h1.816zm14.356 10.81c-1.075 0-1.949-.352-2.622-1.058-.674-.705-1.011-1.649-1.011-2.83v-.25c0-.786.15-1.488.45-2.105.3-.618.72-1.101 1.26-1.45a3.167 3.167 0 0 1 1.754-.524c1.03 0 1.831.34 2.403 1.018.57.678.856 1.65.856 2.915v.564h-5.368c.02.781.248 1.412.685 1.893.437.481.992.722 1.666.722.478 0 .884-.098 1.216-.293a3.07 3.07 0 0 0 .871-.777l.828.645c-.664 1.02-1.66 1.53-2.988 1.53zm-.169-7.104c-.547 0-1.006.199-1.377.597-.37.398-.6.956-.688 1.674h3.97v-.103c-.04-.689-.225-1.222-.557-1.6-.332-.379-.781-.568-1.348-.568zm4.497 2.93c0-1.216.288-2.194.865-2.934.576-.74 1.33-1.11 2.263-1.11.927 0 1.662.318 2.204.953v-4.131h1.355V114h-1.245l-.066-.85c-.542.664-1.296.996-2.263.996-.918 0-1.666-.375-2.245-1.127-.578-.752-.868-1.734-.868-2.945v-.102zm1.355.153c0 .899.186 1.602.557 2.11.371.508.884.762 1.538.762.86 0 1.487-.386 1.882-1.158v-3.64c-.405-.747-1.028-1.12-1.867-1.12-.664 0-1.182.256-1.553.769-.371.512-.557 1.272-.557 2.277zM145 114h-1.355v-7.925H145V114zm-1.465-10.027c0-.22.067-.405.201-.556.134-.152.333-.228.597-.228.264 0 .464.076.6.228a.8.8 0 0 1 .206.556.78.78 0 0 1-.205.55c-.137.146-.337.22-.601.22-.264 0-.463-.074-.597-.22a.782.782 0 0 1-.201-.55zm6.811 9.068a1.95 1.95 0 0 0 1.267-.44c.362-.293.562-.66.6-1.099h1.283a2.455 2.455 0 0 1-.47 1.297c-.287.41-.672.737-1.153.981-.48.244-.99.366-1.527.366-1.079 0-1.937-.36-2.574-1.08-.637-.72-.956-1.705-.956-2.955v-.227c0-.772.142-1.458.425-2.058.283-.6.69-1.067 1.22-1.4.529-.331 1.155-.497 1.878-.497.889 0 1.627.266 2.215.798.589.532.903 1.223.942 2.073h-1.282c-.04-.513-.233-.934-.582-1.264-.35-.33-.78-.494-1.293-.494-.689 0-1.222.248-1.6.743-.379.496-.568 1.213-.568 2.15v.256c0 .913.188 1.617.564 2.11.376.493.913.74 1.611.74zm9.566.959c-.079-.156-.142-.435-.19-.835-.63.654-1.383.981-2.257.981-.78 0-1.422-.22-1.922-.662a2.148 2.148 0 0 1-.751-1.681c0-.825.314-1.466.941-1.923.628-.456 1.51-.685 2.648-.685h1.318v-.622c0-.474-.141-.851-.425-1.132-.283-.28-.7-.421-1.252-.421-.483 0-.889.122-1.216.366-.327.244-.49.54-.49.886h-1.363c0-.395.14-.777.421-1.146.281-.368.662-.66 1.143-.875a3.844 3.844 0 0 1 1.586-.322c.913 0 1.628.228 2.146.685.517.456.786 1.085.805 1.886v3.647c0 .728.093 1.306.279 1.736V114h-1.421zm-2.249-1.033c.425 0 .828-.11 1.209-.33.38-.219.656-.505.827-.856v-1.626h-1.062c-1.66 0-2.49.486-2.49 1.457 0 .425.142.757.425.996.283.24.647.36 1.091.36zM164.65 114h-1.355v-11.25h1.355V114zm10.774 0c-.078-.156-.141-.435-.19-.835-.63.654-1.382.981-2.256.981-.781 0-1.422-.22-1.923-.662-.5-.442-.75-1.003-.75-1.681 0-.825.313-1.466.94-1.923.628-.456 1.51-.685 2.649-.685h1.318v-.622c0-.474-.142-.851-.425-1.132-.283-.28-.7-.421-1.252-.421-.484 0-.889.122-1.216.366-.327.244-.49.54-.49.886h-1.363c0-.395.14-.777.421-1.146.28-.368.662-.66 1.143-.875a3.844 3.844 0 0 1 1.585-.322c.913 0 1.629.228 2.146.685.518.456.786 1.085.806 1.886v3.647c0 .728.093 1.306.278 1.736V114h-1.42zm-2.248-1.033c.425 0 .827-.11 1.208-.33.381-.219.657-.505.828-.856v-1.626h-1.062c-1.66 0-2.49.486-2.49 1.457 0 .425.141.757.424.996.284.24.647.36 1.092.36zm12.21-2.842c0 1.207-.277 2.178-.828 2.916-.552.737-1.3 1.105-2.242 1.105-.962 0-1.718-.305-2.27-.915v3.816h-1.355v-10.972h1.238l.066.88c.551-.684 1.318-1.026 2.3-1.026.952 0 1.705.359 2.259 1.076.554.718.831 1.717.831 2.996v.124zm-1.356-.153c0-.894-.19-1.6-.571-2.117-.38-.518-.903-.776-1.567-.776-.82 0-1.436.363-1.846 1.09v3.788c.405.722 1.025 1.084 1.86 1.084.65 0 1.166-.258 1.55-.773.383-.515.574-1.28.574-2.296zm9.77.153c0 1.207-.275 2.178-.827 2.916-.552.737-1.299 1.105-2.241 1.105-.962 0-1.719-.305-2.27-.915v3.816h-1.356v-10.972h1.238l.066.88c.552-.684 1.319-1.026 2.3-1.026.952 0 1.705.359 2.26 1.076.554.718.83 1.717.83 2.996v.124zm-1.354-.153c0-.894-.19-1.6-.571-2.117-.381-.518-.904-.776-1.568-.776-.82 0-1.435.363-1.846 1.09v3.788c.406.722 1.026 1.084 1.86 1.084.65 0 1.167-.258 1.55-.773s.575-1.28.575-2.296zm2.717-.008c0-.776.153-1.474.458-2.094.305-.62.73-1.099 1.274-1.436.545-.337 1.166-.505 1.864-.505 1.08 0 1.952.373 2.619 1.12.666.747 1 1.741 1 2.981v.095c0 .772-.148 1.464-.444 2.077a3.365 3.365 0 0 1-1.267 1.432c-.55.342-1.18.512-1.893.512-1.074 0-1.945-.373-2.611-1.12-.667-.747-1-1.736-1-2.966v-.096zm1.362.161c0 .88.204 1.585.612 2.117.408.532.953.799 1.637.799.688 0 1.235-.27 1.64-.81.406-.54.608-1.295.608-2.267 0-.869-.206-1.573-.618-2.113-.413-.54-.961-.809-1.645-.809-.669 0-1.208.266-1.618.798-.41.533-.616 1.294-.616 2.285zM205.55 114h-1.355v-7.925h1.355V114zm-1.465-10.027c0-.22.067-.405.201-.556.135-.152.334-.228.597-.228.264 0 .464.076.6.228a.8.8 0 0 1 .206.556c0 .22-.068.403-.205.55-.137.146-.337.22-.6.22-.264 0-.463-.074-.598-.22a.782.782 0 0 1-.201-.55zm4.915 2.102l.043.996c.606-.761 1.397-1.142 2.374-1.142 1.674 0 2.52.945 2.534 2.834V114h-1.355v-5.244c-.005-.571-.136-.994-.392-1.267-.256-.274-.656-.41-1.198-.41-.44 0-.825.117-1.157.351-.332.235-.59.542-.776.923V114h-1.355v-7.925H209zm8.833-1.919v1.92h1.479v1.047h-1.48v4.914c0 .317.066.556.198.714.132.159.357.238.674.238.156 0 .371-.029.645-.088V114a3.928 3.928 0 0 1-1.04.146c-.606 0-1.062-.183-1.37-.549-.308-.366-.461-.886-.461-1.56v-4.914h-1.443v-1.048h1.443v-1.919h1.355zm4.335 1.92l.037.878c.581-.683 1.365-1.025 2.351-1.025 1.109 0 1.863.425 2.263 1.274.264-.38.607-.688 1.03-.923.422-.234.921-.351 1.497-.351 1.739 0 2.622.92 2.652 2.76V114h-1.355v-5.23c0-.566-.13-.99-.389-1.27-.258-.281-.693-.421-1.303-.421-.503 0-.92.15-1.253.45-.332.3-.525.704-.578 1.212V114h-1.363v-5.193c0-1.152-.564-1.728-1.692-1.728-.888 0-1.496.378-1.823 1.135V114h-1.355v-7.925h1.281zm15.162 8.07c-1.075 0-1.949-.352-2.622-1.058-.674-.705-1.011-1.649-1.011-2.83v-.25c0-.786.15-1.488.45-2.105.3-.618.72-1.101 1.26-1.45a3.167 3.167 0 0 1 1.754-.524c1.03 0 1.831.34 2.403 1.018.57.678.856 1.65.856 2.915v.564h-5.368c.02.781.248 1.412.685 1.893.437.481.992.722 1.666.722.478 0 .884-.098 1.216-.293a3.07 3.07 0 0 0 .871-.777l.828.645c-.664 1.02-1.66 1.53-2.988 1.53zm-.169-7.104c-.547 0-1.006.199-1.377.597-.37.398-.6.956-.688 1.674h3.97v-.103c-.04-.689-.225-1.222-.557-1.6-.332-.379-.781-.568-1.348-.568zm6.109-.967l.043.996c.606-.761 1.397-1.142 2.374-1.142 1.674 0 2.52.945 2.534 2.834V114h-1.355v-5.244c-.005-.571-.136-.994-.392-1.267-.256-.274-.656-.41-1.198-.41-.44 0-.825.117-1.157.351-.332.235-.59.542-.776.923V114h-1.355v-7.925h1.282zm8.833-1.919v1.92h1.48v1.047h-1.48v4.914c0 .317.065.556.197.714.132.159.357.238.674.238.156 0 .371-.029.645-.088V114a3.928 3.928 0 0 1-1.04.146c-.606 0-1.062-.183-1.37-.549-.308-.366-.461-.886-.461-1.56v-4.914h-1.443v-1.048h1.443v-1.919h1.355zm13.791 7.976l1.524-6.057h1.354L266.464 114h-1.098l-1.927-6.006-1.875 6.006h-1.098l-2.3-7.925h1.348l1.56 5.933 1.845-5.933h1.092l1.882 6.057zm5.728 1.868h-1.355v-7.925h1.355V114zm-1.465-10.027c0-.22.067-.405.201-.556.134-.152.333-.228.597-.228.264 0 .464.076.6.228a.8.8 0 0 1 .206.556.78.78 0 0 1-.205.55c-.137.146-.337.22-.6.22-.265 0-.464-.074-.598-.22a.782.782 0 0 1-.201-.55zm5.471.183v1.92h1.48v1.047h-1.48v4.914c0 .317.066.556.198.714.132.159.356.238.674.238.156 0 .37-.029.644-.088V114a3.928 3.928 0 0 1-1.04.146c-.605 0-1.062-.183-1.37-.549-.307-.366-.461-.886-.461-1.56v-4.914h-1.443v-1.048h1.443v-1.919h1.355zm4.416 2.879c.601-.738 1.382-1.106 2.344-1.106 1.675 0 2.52.945 2.534 2.834V114h-1.355v-5.244c-.004-.571-.135-.994-.391-1.267-.257-.274-.656-.41-1.198-.41-.44 0-.825.117-1.157.351a2.397 2.397 0 0 0-.777.923V114h-1.355v-11.25h1.355v4.285zm8.38 6.965h-1.356v-7.925h1.355V114zm-1.465-10.027c0-.22.067-.405.2-.556.135-.152.334-.228.598-.228.264 0 .464.076.6.228a.8.8 0 0 1 .206.556c0 .22-.069.403-.206.55-.136.146-.336.22-.6.22-.264 0-.463-.074-.597-.22a.782.782 0 0 1-.201-.55zm4.914 2.102l.044.996c.605-.761 1.396-1.142 2.373-1.142 1.675 0 2.52.945 2.534 2.834V114h-1.355v-5.244c-.005-.571-.135-.994-.392-1.267-.256-.274-.655-.41-1.197-.41-.44 0-.825.117-1.157.351a2.397 2.397 0 0 0-.777.923V114h-1.355v-7.925h1.282zM309.428 114h-6.987v-.974l3.691-4.102c.547-.62.924-1.124 1.132-1.512a2.53 2.53 0 0 0 .311-1.205c0-.557-.168-1.013-.505-1.37-.337-.356-.786-.534-1.348-.534-.674 0-1.197.191-1.57.575-.374.383-.561.916-.561 1.6h-1.355c0-.981.316-1.775.948-2.38.633-.606 1.479-.909 2.538-.909.991 0 1.775.26 2.351.78.576.52.865 1.213.865 2.077 0 1.05-.67 2.3-2.007 3.75l-2.857 3.098h5.354V114zm7.156-3.582h1.48v1.106h-1.48V114h-1.362v-2.476h-4.856v-.798l4.775-7.39h1.443v7.082zm-4.68 0h3.318v-5.229l-.161.293-3.157 4.936zm12.59-3.383c.6-.738 1.382-1.106 2.344-1.106 1.675 0 2.52.945 2.534 2.834V114h-1.355v-5.244c-.005-.571-.135-.994-.392-1.267-.256-.274-.655-.41-1.197-.41-.44 0-.825.117-1.157.351a2.388 2.388 0 0 0-.777.923V114h-1.355v-11.25h1.355v4.285zm10.737.256a4.06 4.06 0 0 0-.666-.051c-.889 0-1.492.378-1.81 1.135V114h-1.354v-7.925h1.318l.022.916c.445-.708 1.074-1.062 1.89-1.062.264 0 .464.034.6.102v1.26zm5.86 4.607c0-.366-.138-.65-.414-.853-.276-.203-.757-.378-1.443-.524-.686-.146-1.23-.322-1.633-.527-.403-.205-.7-.45-.894-.733a1.752 1.752 0 0 1-.289-1.01c0-.65.275-1.2.824-1.648.55-.45 1.251-.674 2.106-.674.898 0 1.627.232 2.186.696a2.21 2.21 0 0 1 .839 1.78h-1.363c0-.372-.157-.692-.472-.96-.315-.269-.712-.403-1.19-.403-.494 0-.88.107-1.158.322a1.014 1.014 0 0 0-.417.843c0 .327.13.573.388.74.259.165.726.324 1.403.475.676.152 1.224.332 1.644.542.42.21.731.463.934.758.202.296.304.656.304 1.08 0 .709-.283 1.276-.85 1.704-.566.427-1.301.64-2.204.64-.635 0-1.197-.112-1.685-.336a2.74 2.74 0 0 1-1.146-.942 2.268 2.268 0 0 1-.414-1.307h1.355c.024.454.206.814.546 1.08.339.266.787.4 1.344.4.512 0 .924-.104 1.234-.312.31-.207.465-.484.465-.831z" fill="#475561" fill-rule="nonzero"/></g></svg>